<svg width="51" height="51" viewBox="0 0 51 51" fill="none" xmlns="http://www.w3.org/2000/svg">
<g clip-path="url(#clip0_3334_25958)">
<path d="M36.9789 4.23829C34.6141 4.23859 32.2945 4.88633 30.2717 6.11127C28.2488 7.3362 26.6 9.09158 25.5039 11.187C24.1572 8.62382 21.991 6.5853 19.3508 5.39653C16.7106 4.20775 13.7484 3.93716 10.9366 4.6279C8.12467 5.31865 5.62502 6.93095 3.83615 9.20774C2.04728 11.4845 1.07221 14.2947 1.06641 17.1902C1.06641 24.3408 5.50766 30.8752 11.2452 36.2408C15.6715 40.1632 20.4439 43.6767 25.5039 46.7383C30.526 43.6203 35.2938 40.1102 39.7627 36.2408C46.1377 30.4183 49.9414 24.3408 49.9414 17.1902C49.9414 15.4884 49.606 13.8033 48.9545 12.2312C48.3029 10.6591 47.348 9.23087 46.1441 8.02804C44.9403 6.82521 43.5113 5.8714 41.9386 5.22114C40.366 4.57087 38.6807 4.23689 36.9789 4.23829Z" stroke="#FFCB85" stroke-width="3.35878" stroke-miterlimit="10"/>
</g>
<defs>
<clipPath id="clip0_3334_25958">
<rect width="51" height="51" fill="white"/>
</clipPath>
</defs>
</svg>
