<svg width="24" height="30" viewBox="0 0 24 30" fill="none" xmlns="http://www.w3.org/2000/svg">
<path d="M7.152 0.287251C8.69775 0.0757512 9.99675 1.0215 10.6118 2.25075L12.1245 5.2755C12.9638 6.954 12.4815 8.9235 11.2095 10.1625C10.458 10.8938 9.70275 11.7293 9.26475 12.4665C9.23574 12.519 9.22668 12.5803 9.23925 12.639C9.64425 14.8335 11.1315 17.0018 12.4583 18.5565C12.525 18.6306 12.6121 18.6835 12.7086 18.7084C12.8052 18.7333 12.907 18.7293 13.0013 18.6968L15.9825 17.7653C16.7856 17.5142 17.6479 17.5271 18.4432 17.8019C19.2384 18.0767 19.9247 18.599 20.4015 19.2923L22.5592 22.4303C23.1442 23.2823 23.4405 24.4373 22.992 25.548C22.5915 26.5403 21.8168 27.9713 20.4075 28.923C18.945 29.91 16.9418 30.285 14.3205 29.3865C11.3918 28.3815 8.625 25.8615 6.33075 22.6388C4.023 19.3958 2.12325 15.345 0.971251 11.121C-0.116999 7.1325 0.54 4.4475 2.0865 2.71875C3.57825 1.05075 5.71575 0.484501 7.152 0.287251ZM8.93475 3.08925C8.592 2.4045 7.98075 2.06625 7.407 2.145C6.13125 2.3205 4.53375 2.79525 3.4845 3.969C2.49 5.08125 1.8015 7.04025 2.7795 10.6275C3.87825 14.6535 5.68725 18.501 7.8585 21.5513C10.0433 24.621 12.5258 26.7885 14.9288 27.6128C17.07 28.347 18.4463 27.984 19.3583 27.369C20.3228 26.7173 20.916 25.6815 21.2535 24.846C21.408 24.4635 21.3413 23.9685 21.0143 23.493L18.8565 20.355C18.6068 19.9918 18.2474 19.7182 17.8309 19.5742C17.4144 19.4302 16.9627 19.4234 16.542 19.5548L13.5608 20.4863C12.6698 20.7645 11.6662 20.5163 11.0325 19.7738C9.65175 18.156 7.89225 15.675 7.395 12.9788C7.29995 12.4734 7.39163 11.9508 7.653 11.508C8.2215 10.5525 9.1215 9.57825 9.90075 8.81925C10.662 8.07825 10.878 6.97575 10.4475 6.114L8.93475 3.09V3.08925Z" fill="white"/>
</svg>
