<svg width="24" height="24" viewBox="0 0 24 24" fill="none" xmlns="http://www.w3.org/2000/svg">
<path d="M21.75 12C21.75 10.0716 21.1782 8.18657 20.1068 6.58319C19.0355 4.97982 17.5127 3.73013 15.7312 2.99218C13.9496 2.25422 11.9892 2.06114 10.0979 2.43735C8.20656 2.81355 6.46928 3.74215 5.10571 5.10571C3.74215 6.46928 2.81355 8.20656 2.43735 10.0979C2.06114 11.9892 2.25422 13.9496 2.99218 15.7312C3.73013 17.5127 4.97982 19.0355 6.58319 20.1068C8.18657 21.1782 10.0716 21.75 12 21.75C14.5851 21.7475 17.0636 20.7195 18.8916 18.8916C20.7195 17.0636 21.7475 14.5851 21.75 12ZM12.75 20.2125V14.25H15C15.1989 14.25 15.3897 14.171 15.5303 14.0303C15.671 13.8897 15.75 13.6989 15.75 13.5C15.75 13.3011 15.671 13.1103 15.5303 12.9697C15.3897 12.829 15.1989 12.75 15 12.75H12.75V10.5C12.75 10.1022 12.908 9.72065 13.1893 9.43934C13.4706 9.15804 13.8522 9 14.25 9H15.75C15.9489 9 16.1397 8.92099 16.2803 8.78033C16.421 8.63968 16.5 8.44892 16.5 8.25C16.5 8.05109 16.421 7.86033 16.2803 7.71967C16.1397 7.57902 15.9489 7.5 15.75 7.5H14.25C13.4551 7.50248 12.6935 7.81934 12.1314 8.38142C11.5693 8.94349 11.2525 9.70512 11.25 10.5V12.75H9C8.80109 12.75 8.61033 12.829 8.46967 12.9697C8.32902 13.1103 8.25 13.3011 8.25 13.5C8.25 13.6989 8.32902 13.8897 8.46967 14.0303C8.61033 14.171 8.80109 14.25 9 14.25H11.25V20.2125C9.13575 20.0195 7.17728 19.0189 5.78198 17.4187C4.38667 15.8186 3.66195 13.7421 3.75855 11.6213C3.85515 9.50043 4.76564 7.49846 6.30064 6.03179C7.83563 4.56512 9.87696 3.74667 12 3.74667C14.1231 3.74667 16.1644 4.56512 17.6994 6.03179C19.2344 7.49846 20.1449 9.50043 20.2415 11.6213C20.3381 13.7421 19.6133 15.8186 18.218 17.4187C16.8227 19.0189 14.8643 20.0195 12.75 20.2125Z" fill="white"/>
</svg>
