<svg width="1440" height="59" viewBox="0 0 1440 59" fill="none" xmlns="http://www.w3.org/2000/svg">
<path d="M852.673 27.6406L1443.53 27.6406C1444.32 27.6406 1444.98 28.2781 1444.98 29.0675C1444.98 29.8568 1444.32 30.4944 1443.53 30.4944L852.673 30.4944C851.853 30.4944 851.216 29.8568 851.216 29.0675C851.185 28.2781 851.853 27.6406 852.673 27.6406Z" fill="url(#paint0_linear_3334_25730)"/>
<path d="M840.48 29.033C840.48 27.1508 842.029 25.6328 843.942 25.6328C845.854 25.6328 847.402 27.1508 847.402 29.033C847.402 30.9153 845.854 32.4333 843.942 32.4333C842.029 32.4637 840.48 30.9153 840.48 29.033Z" fill="url(#paint1_linear_3334_25730)"/>
<path d="M828.443 29.042C828.443 26.3704 830.629 24.2148 833.331 24.2148C836.033 24.2148 838.219 26.3704 838.219 29.042C838.219 31.6833 836.033 33.8388 833.331 33.8388C830.629 33.8692 828.443 31.7136 828.443 29.042Z" fill="url(#paint2_linear_3334_25730)"/>
<path d="M-2.74287 27.6406L587.443 27.6406C588.232 27.6406 588.9 28.2781 588.9 29.0675C588.9 29.8568 588.232 30.4944 587.443 30.4944L-2.74287 30.4944C-3.56257 30.4944 -4.23047 29.8568 -4.23047 29.0675C-4.20011 28.2781 -3.56257 27.6406 -2.74287 27.6406Z" fill="url(#paint3_linear_3334_25730)"/>
<path d="M592.752 29.033C592.752 27.1508 594.3 25.6328 596.213 25.6328C598.126 25.6328 599.674 27.1508 599.674 29.033C599.674 30.9153 598.126 32.4333 596.213 32.4333C594.3 32.4637 592.752 30.9153 592.752 29.033Z" fill="url(#paint4_linear_3334_25730)"/>
<path d="M606.943 33.8691C609.642 33.8691 611.83 31.7079 611.83 29.042C611.83 26.376 609.642 24.2148 606.943 24.2148C604.243 24.2148 602.055 26.376 602.055 29.042C602.055 31.7079 604.243 33.8691 606.943 33.8691Z" fill="url(#paint5_linear_3334_25730)"/>
<path d="M716.47 6.61835C714.284 10.3525 711.734 14.2082 709.275 18.2764C705.146 20.7051 701.23 23.1946 697.405 25.3501C695.158 26.6859 692.912 27.9002 690.695 28.9932C692.942 30.0861 695.158 31.3005 697.405 32.6363C701.23 34.7918 705.116 37.2813 709.275 39.71C711.734 43.7782 714.254 47.6338 716.47 51.3984C717.806 53.6146 719.051 55.8309 720.174 58.0167C721.297 55.8309 722.512 53.6146 723.878 51.3984C726.064 47.6338 728.614 43.8085 731.073 39.71C735.202 37.2813 739.118 34.7918 742.944 32.6363C745.19 31.3005 747.437 30.0861 749.653 28.9932C747.406 27.9002 745.19 26.6859 742.944 25.3501C739.118 23.1946 735.232 20.7051 731.073 18.2764C728.614 14.2082 726.094 10.3525 723.878 6.61835C722.542 4.40212 721.297 2.18587 720.174 0C719.051 2.18587 717.837 4.40212 716.47 6.61835ZM737.54 28.9932C733.806 30.9362 730.071 33.031 726.307 35.0347C724.273 38.7386 722.147 42.412 720.174 46.0855C718.201 42.412 716.076 38.7386 714.042 35.0347C710.247 33.031 706.543 30.9362 702.809 28.9932C706.543 27.0502 710.247 24.925 714.042 22.9517C716.045 19.2175 718.201 15.5743 720.174 11.9009C722.178 15.5743 724.303 19.2175 726.307 22.9517C730.071 24.9554 733.806 27.0502 737.54 28.9932Z" fill="url(#paint6_linear_3334_25730)"/>
<path d="M618.771 28.9828C617.405 27.7077 616.433 26.1594 616.069 24.611C615.401 22.1216 615.887 19.9357 616.615 18.357C618.255 15.1389 620.593 14.9567 620.441 14.8657C620.562 14.896 618.437 15.6854 617.617 18.691C617.253 20.1482 617.253 22.0609 618.134 23.8824C618.953 25.6736 620.714 27.1612 623.082 27.7988C625.389 28.4667 628.243 28.3149 630.824 27.3434C633.465 26.3415 636.015 24.4896 638.474 22.1823C640.964 19.9054 643.362 17.1123 646.307 14.38C649.221 11.678 652.895 8.91525 657.51 7.67052C662.003 6.42579 667.012 6.7901 670.807 9.46172C674.42 12.103 676.241 16.0497 675.998 19.875C675.877 21.7876 675.118 23.6092 674.055 24.945C672.993 26.2808 671.657 27.222 670.352 27.7684C667.71 28.9221 665.069 28.8614 663.065 28.1934C659.058 26.7362 657.631 24.0342 656.963 22.5162C656.326 20.9072 656.326 20.1178 656.326 20.1178C656.326 20.1178 656.751 20.8161 657.844 21.9394C658.906 23.002 660.91 24.6414 663.794 24.8842C665.16 24.9753 666.769 24.6414 668.105 23.7002C669.471 22.7591 670.352 21.3322 670.23 19.6625C670.169 17.9927 668.955 15.8675 667.073 14.7139C665.282 13.5906 662.367 13.2566 659.331 14.1067C653.107 15.7461 648.159 21.7573 642.208 26.4326C641.085 27.313 639.901 28.1327 638.656 28.8917C639.901 29.6507 641.085 30.4704 642.208 31.3508C648.159 36.0262 653.107 42.0373 659.331 43.6767C662.367 44.5268 665.282 44.1928 667.073 43.0695C668.955 41.9159 670.139 39.7907 670.23 38.1209C670.352 36.4512 669.471 35.0547 668.105 34.0832C666.739 33.142 665.16 32.808 663.794 32.8991C660.91 33.142 658.906 34.7814 657.844 35.844C656.751 36.9673 656.326 37.6656 656.326 37.6656C656.326 37.6656 656.295 36.8762 656.963 35.2672C657.631 33.7796 659.028 31.0776 663.065 29.6203C665.069 28.9524 667.71 28.8613 670.352 30.0453C671.657 30.6222 672.993 31.5329 674.055 32.8991C675.118 34.2349 675.907 36.0565 675.998 37.9692C676.272 41.7944 674.42 45.7411 670.807 48.3824C667.012 51.054 662.003 51.4183 657.51 50.1736C652.925 48.9288 649.221 46.1662 646.307 43.4642C643.362 40.7319 640.933 37.9388 638.474 35.6619C636.015 33.3545 633.495 31.5026 630.824 30.5008C628.243 29.4989 625.42 29.3774 623.082 30.0453C620.744 30.6829 618.953 32.1705 618.134 33.9617C617.283 35.7832 617.283 37.6959 617.617 39.1532C618.437 42.1587 620.562 42.9481 620.441 42.9784C620.593 42.9177 618.255 42.7052 616.615 39.4871C615.887 37.9388 615.431 35.7226 616.069 33.2331C616.433 31.8062 617.375 30.2579 618.771 28.9828Z" fill="url(#paint7_linear_3334_25730)"/>
<path d="M821.601 28.9902C822.967 30.2653 823.939 31.8137 824.303 33.362C824.941 35.8515 824.485 38.0373 823.757 39.616C822.117 42.8341 819.78 43.0163 819.931 43.1073C819.81 43.077 821.966 42.2877 822.755 39.2821C823.119 37.8248 823.119 35.9122 822.269 34.0906C821.45 32.2994 819.689 30.8118 817.321 30.1742C815.013 29.5063 812.16 29.6582 809.579 30.6297C806.938 31.6315 804.388 33.4834 801.928 35.7908C799.469 38.0677 797.041 40.8608 794.096 43.5931C791.181 46.2951 787.508 49.0578 782.924 50.3025C778.43 51.5472 773.421 51.1829 769.626 48.5113C766.013 45.87 764.192 41.9234 764.435 38.0981C764.556 36.1854 765.315 34.3942 766.378 33.0281C767.471 31.6923 768.776 30.7511 770.112 30.1742C772.753 29.0206 775.394 29.0813 777.398 29.7492C781.406 31.2065 782.832 33.9085 783.5 35.3961C784.138 37.0051 784.108 37.7945 784.108 37.7945C784.108 37.7945 783.713 37.0962 782.59 35.9729C781.527 34.9103 779.523 33.2709 776.639 33.0281C775.273 32.937 773.664 33.2709 772.328 34.2121C770.962 35.1532 770.082 36.5801 770.203 38.2498C770.264 39.9196 771.478 42.0448 773.33 43.1984C775.121 44.3217 778.036 44.6557 781.072 43.8056C787.295 42.1662 792.244 36.1551 798.164 31.4797C799.287 30.5993 800.471 29.7796 801.716 29.0206C800.471 28.2617 799.287 27.4419 798.164 26.5615C792.213 21.8862 787.265 15.875 781.072 14.2356C778.005 13.3855 775.121 13.7195 773.33 14.8428C771.478 15.9965 770.264 18.1216 770.203 19.7914C770.051 21.4611 770.962 22.888 772.328 23.8292C773.694 24.7703 775.273 25.1346 776.639 25.0132C779.523 24.7703 781.527 23.1309 782.59 22.0683C783.682 20.9451 784.108 20.2467 784.108 20.2467C784.108 20.2467 784.138 21.0361 783.5 22.6452C782.832 24.1328 781.436 26.8347 777.398 28.3224C775.394 28.9903 772.753 29.0813 770.112 27.8973C768.776 27.3205 767.471 26.4097 766.378 25.0739C765.315 23.7381 764.556 21.9165 764.435 20.0039C764.161 16.1786 766.013 12.2319 769.626 9.59063C773.421 6.919 778.43 6.55469 782.924 7.79943C787.508 9.04416 791.181 11.8069 794.096 14.5089C797.041 17.2412 799.469 20.0343 801.928 22.3112C804.388 24.6185 806.938 26.4401 809.579 27.4723C812.16 28.4742 815.013 28.5956 817.321 27.9277C819.658 27.2901 821.45 25.8025 822.269 24.0113C823.119 22.1898 823.119 20.2771 822.755 18.8199C821.935 15.8143 819.81 15.0249 819.931 14.9946C819.78 15.0553 822.117 15.2679 823.757 18.4859C824.485 20.0343 824.941 22.2505 824.303 24.74C823.939 26.1668 822.967 27.7151 821.601 28.9902Z" fill="url(#paint8_linear_3334_25730)"/>
<path d="M676.525 29.0267C678.104 28.1767 679.592 27.1141 680.897 25.8998C684.328 22.8942 686.665 19.3421 688.092 18.0367C690.916 15.4561 695.591 13.3006 697.322 14.9096C699.022 16.5187 697.139 21.2851 693.921 24.23C692.585 25.4444 689.155 27.5088 685.026 29.0267C689.155 30.5447 692.585 32.6395 693.921 33.8235C697.139 36.7684 698.991 41.5348 697.322 43.1438C695.591 44.7529 690.916 42.5974 688.092 40.0169C686.665 38.7418 684.328 35.1897 680.897 32.1538C679.622 30.9697 678.104 29.9072 676.525 29.0267Z" fill="url(#paint9_linear_3334_25730)"/>
<path d="M763.785 29.0267C762.206 29.8768 760.719 30.9393 759.413 32.1537C756.013 35.1896 753.645 38.7417 752.218 40.0168C749.394 42.567 744.719 44.7528 742.989 43.1438C741.289 41.5651 743.171 36.7683 746.389 33.8235C747.725 32.6091 751.155 30.5447 755.284 29.0267C751.155 27.5088 747.694 25.414 746.389 24.2299C743.171 21.2851 741.319 16.5187 742.989 14.9096C744.719 13.3006 749.394 15.4561 752.218 18.0366C753.675 19.3117 756.013 22.8638 759.413 25.8997C760.719 27.0837 762.236 28.1463 763.785 29.0267Z" fill="url(#paint10_linear_3334_25730)"/>
<path d="M732.444 17.0022C731.109 14.3913 729.166 9.95883 727.951 8.28906C729.317 10.1106 732.536 12.9644 734.57 14.9378C736.573 16.9415 739.457 20.0988 741.309 21.4346C739.579 20.2202 735.055 18.3076 732.444 17.0022Z" fill="url(#paint11_linear_3334_25730)"/>
<path d="M707.918 17.0022C705.276 18.3076 700.783 20.2202 699.053 21.4346C700.935 20.0684 703.789 16.9415 705.793 14.9378C707.827 12.9644 711.045 10.1106 712.411 8.28906C711.197 9.95883 709.253 14.3913 707.918 17.0022Z" fill="url(#paint12_linear_3334_25730)"/>
<path d="M707.918 40.9863C709.253 43.5668 711.197 48.0296 712.411 49.6994C711.014 47.8475 707.827 45.0241 705.793 43.0507C703.789 41.047 700.905 37.8896 699.053 36.5234C700.783 37.7682 705.307 39.6808 707.918 40.9863Z" fill="url(#paint13_linear_3334_25730)"/>
<path d="M732.444 41.1004C735.086 39.795 739.579 37.8823 741.309 36.668C739.457 38.0341 736.573 41.1611 734.57 43.1952C732.536 45.1989 729.348 48.0224 727.951 49.8439C729.166 48.1438 731.109 43.681 732.444 41.1004Z" fill="url(#paint14_linear_3334_25730)"/>
<path d="M758.02 43.2327C757.079 43.172 756.624 40.7736 757.352 38.8913C757.686 37.9805 758.992 36.0375 760.661 34.5196C762.331 32.9409 764.304 31.7569 765.306 31.0586C764.153 31.9087 762.787 33.7606 761.997 35.6429C761.147 37.4948 760.874 39.3164 760.601 40.0753C759.993 41.563 758.992 43.3238 758.02 43.2327Z" fill="url(#paint15_linear_3334_25730)"/>
<path d="M682.307 14.7007C683.248 14.7615 683.734 17.1598 683.005 19.0421C682.671 19.9833 681.366 21.8959 679.696 23.4442C678.026 25.0229 676.053 26.1766 675.051 26.9052C676.204 26.0552 677.601 24.2032 678.39 22.3209C679.24 20.469 679.514 18.6474 679.787 17.9188C680.364 16.4008 681.366 14.64 682.307 14.7007Z" fill="url(#paint16_linear_3334_25730)"/>
<path d="M758.02 14.7007C757.079 14.7615 756.624 17.1598 757.352 19.0421C757.686 19.9833 758.992 21.8959 760.661 23.4442C762.331 25.0229 764.304 26.1766 765.306 26.9052C764.153 26.0552 762.787 24.2032 761.997 22.3209C761.147 20.469 760.874 18.6474 760.601 17.9188C759.993 16.4008 758.992 14.64 758.02 14.7007Z" fill="url(#paint17_linear_3334_25730)"/>
<path d="M682.307 43.2327C683.248 43.172 683.734 40.7736 683.005 38.8913C682.671 37.9805 681.366 36.0375 679.696 34.5196C678.026 32.9409 676.053 31.7569 675.051 31.0586C676.204 31.9087 677.601 33.7606 678.39 35.6429C679.24 37.4948 679.514 39.3164 679.787 40.0753C680.364 41.563 681.366 43.3238 682.307 43.2327Z" fill="url(#paint18_linear_3334_25730)"/>
<defs>
<linearGradient id="paint0_linear_3334_25730" x1="851.195" y1="29.0766" x2="1444.97" y2="29.0766" gradientUnits="userSpaceOnUse">
<stop stop-color="#FEDB87"/>
<stop offset="0.3167" stop-color="#BD7923"/>
<stop offset="1" stop-color="#F7D07C"/>
</linearGradient>
<linearGradient id="paint1_linear_3334_25730" x1="840.468" y1="29.0422" x2="847.396" y2="29.0422" gradientUnits="userSpaceOnUse">
<stop stop-color="#FEDB87"/>
<stop offset="0.3167" stop-color="#BD7923"/>
<stop offset="1" stop-color="#F7D07C"/>
</linearGradient>
<linearGradient id="paint2_linear_3334_25730" x1="828.437" y1="29.0511" x2="838.21" y2="29.0511" gradientUnits="userSpaceOnUse">
<stop stop-color="#FEDB87"/>
<stop offset="0.3167" stop-color="#BD7923"/>
<stop offset="1" stop-color="#F7D07C"/>
</linearGradient>
<linearGradient id="paint3_linear_3334_25730" x1="-4.21225" y1="29.0766" x2="588.909" y2="29.0766" gradientUnits="userSpaceOnUse">
<stop stop-color="#FEDB87"/>
<stop offset="0.3167" stop-color="#BD7923"/>
<stop offset="1" stop-color="#F7D07C"/>
</linearGradient>
<linearGradient id="paint4_linear_3334_25730" x1="592.749" y1="29.0422" x2="599.668" y2="29.0422" gradientUnits="userSpaceOnUse">
<stop stop-color="#FEDB87"/>
<stop offset="0.3167" stop-color="#BD7923"/>
<stop offset="1" stop-color="#F7D07C"/>
</linearGradient>
<linearGradient id="paint5_linear_3334_25730" x1="602.064" y1="29.0511" x2="611.84" y2="29.0511" gradientUnits="userSpaceOnUse">
<stop stop-color="#FEDB87"/>
<stop offset="0.3167" stop-color="#BD7923"/>
<stop offset="1" stop-color="#F7D07C"/>
</linearGradient>
<linearGradient id="paint6_linear_3334_25730" x1="690.723" y1="29.0023" x2="749.626" y2="29.0023" gradientUnits="userSpaceOnUse">
<stop stop-color="#FEDB87"/>
<stop offset="0.3167" stop-color="#BD7923"/>
<stop offset="1" stop-color="#F7D07C"/>
</linearGradient>
<linearGradient id="paint7_linear_3334_25730" x1="615.753" y1="28.9919" x2="675.941" y2="28.9919" gradientUnits="userSpaceOnUse">
<stop stop-color="#FEDB87"/>
<stop offset="0.3167" stop-color="#BD7923"/>
<stop offset="1" stop-color="#F7D07C"/>
</linearGradient>
<linearGradient id="paint8_linear_3334_25730" x1="764.432" y1="28.9993" x2="824.619" y2="28.9993" gradientUnits="userSpaceOnUse">
<stop stop-color="#FEDB87"/>
<stop offset="0.3167" stop-color="#BD7923"/>
<stop offset="1" stop-color="#F7D07C"/>
</linearGradient>
<linearGradient id="paint9_linear_3334_25730" x1="676.541" y1="29.0358" x2="697.965" y2="29.0358" gradientUnits="userSpaceOnUse">
<stop stop-color="#FEDB87"/>
<stop offset="0.3167" stop-color="#BD7923"/>
<stop offset="1" stop-color="#F7D07C"/>
</linearGradient>
<linearGradient id="paint10_linear_3334_25730" x1="742.372" y1="29.0055" x2="763.8" y2="29.0055" gradientUnits="userSpaceOnUse">
<stop stop-color="#FEDB87"/>
<stop offset="0.3167" stop-color="#BD7923"/>
<stop offset="1" stop-color="#F7D07C"/>
</linearGradient>
<linearGradient id="paint11_linear_3334_25730" x1="727.933" y1="14.8467" x2="741.297" y2="14.8467" gradientUnits="userSpaceOnUse">
<stop stop-color="#FEDB87"/>
<stop offset="0.3167" stop-color="#BD7923"/>
<stop offset="1" stop-color="#F7D07C"/>
</linearGradient>
<linearGradient id="paint12_linear_3334_25730" x1="699.062" y1="14.8467" x2="712.429" y2="14.8467" gradientUnits="userSpaceOnUse">
<stop stop-color="#FEDB87"/>
<stop offset="0.3167" stop-color="#BD7923"/>
<stop offset="1" stop-color="#F7D07C"/>
</linearGradient>
<linearGradient id="paint13_linear_3334_25730" x1="699.062" y1="43.1327" x2="712.429" y2="43.1327" gradientUnits="userSpaceOnUse">
<stop stop-color="#FEDB87"/>
<stop offset="0.3167" stop-color="#BD7923"/>
<stop offset="1" stop-color="#F7D07C"/>
</linearGradient>
<linearGradient id="paint14_linear_3334_25730" x1="727.933" y1="43.2468" x2="741.297" y2="43.2468" gradientUnits="userSpaceOnUse">
<stop stop-color="#FEDB87"/>
<stop offset="0.3167" stop-color="#BD7923"/>
<stop offset="1" stop-color="#F7D07C"/>
</linearGradient>
<linearGradient id="paint15_linear_3334_25730" x1="757" y1="37.1548" x2="765.306" y2="37.1548" gradientUnits="userSpaceOnUse">
<stop stop-color="#FEDB87"/>
<stop offset="0.3167" stop-color="#BD7923"/>
<stop offset="1" stop-color="#F7D07C"/>
</linearGradient>
<linearGradient id="paint16_linear_3334_25730" x1="675.042" y1="20.7969" x2="683.357" y2="20.7969" gradientUnits="userSpaceOnUse">
<stop stop-color="#FEDB87"/>
<stop offset="0.3167" stop-color="#BD7923"/>
<stop offset="1" stop-color="#F7D07C"/>
</linearGradient>
<linearGradient id="paint17_linear_3334_25730" x1="757" y1="20.7969" x2="765.306" y2="20.7969" gradientUnits="userSpaceOnUse">
<stop stop-color="#FEDB87"/>
<stop offset="0.3167" stop-color="#BD7923"/>
<stop offset="1" stop-color="#F7D07C"/>
</linearGradient>
<linearGradient id="paint18_linear_3334_25730" x1="675.042" y1="37.1548" x2="683.357" y2="37.1548" gradientUnits="userSpaceOnUse">
<stop stop-color="#FEDB87"/>
<stop offset="0.3167" stop-color="#BD7923"/>
<stop offset="1" stop-color="#F7D07C"/>
</linearGradient>
</defs>
</svg>
