<svg width="22" height="22" viewBox="0 0 22 22" fill="none" xmlns="http://www.w3.org/2000/svg">
<path d="M15.9507 1.83203C14.9305 1.83216 13.9299 2.11158 13.0573 2.63999C12.1847 3.16839 11.4735 3.92561 11.0007 4.82953C10.4197 3.72383 9.48528 2.84447 8.34638 2.33167C7.20747 1.81886 5.92966 1.70214 4.71669 2.0001C3.50373 2.29807 2.42544 2.99357 1.65378 3.97572C0.882108 4.95786 0.461488 6.17009 0.458984 7.41912C0.458984 10.5037 2.37482 13.3224 4.84982 15.637C6.7592 17.329 8.81789 18.8447 11.0007 20.1654C13.167 18.8204 15.2237 17.3062 17.1515 15.637C19.9015 13.1254 21.5423 10.5037 21.5423 7.41912C21.5423 6.68502 21.3977 5.95813 21.1166 5.27997C20.8355 4.60182 20.4236 3.9857 19.9043 3.46683C19.385 2.94796 18.7685 2.53652 18.0901 2.25601C17.4118 1.9755 16.6847 1.83143 15.9507 1.83203Z" stroke="#68232B" stroke-width="0.916667" stroke-miterlimit="10"/>
</svg>
