<svg width="30" height="28" viewBox="0 0 30 28" fill="none" xmlns="http://www.w3.org/2000/svg">
<path d="M29.0344 3.21406C28.9364 3.13201 28.8198 3.07505 28.6949 3.0481C28.5699 3.02115 28.4403 3.02502 28.3172 3.05938L19.6125 5.225L10.8938 0.865625H10.8797L10.7953 0.823438H10.6969C10.6969 0.809375 10.6828 0.809375 10.6687 0.809375H10.3172L1.31719 3.05938C1.13247 3.10109 0.967589 3.20475 0.849917 3.35311C0.732246 3.50148 0.668869 3.68564 0.670312 3.875V24.125C0.671817 24.2523 0.701621 24.3776 0.757563 24.4919C0.813505 24.6062 0.894184 24.7067 0.99375 24.7859C1.1407 24.9054 1.32466 24.9701 1.51406 24.9688L1.725 24.9406L10.4156 22.775L19.1344 27.1344L19.2328 27.1766H19.2609L19.3594 27.2047H19.725L28.725 24.9547C28.9071 24.9102 29.0688 24.8054 29.1837 24.6573C29.2986 24.5092 29.36 24.3265 29.3578 24.1391V3.875C29.3595 3.74719 29.331 3.62079 29.2749 3.50598C29.2187 3.39118 29.1363 3.29118 29.0344 3.21406V3.21406ZM2.35781 4.53594L9.67031 2.70781V21.2141L2.35781 23.0422V4.53594ZM18.6703 25.0109L11.3578 21.3547V2.98906L18.6703 6.64531V25.0109ZM27.6703 23.4641L20.3578 25.2922V6.78594L27.6703 4.95781V23.4641Z" fill="white"/>
</svg>
