<svg width="125" height="25" viewBox="0 0 125 25" fill="none" xmlns="http://www.w3.org/2000/svg">
<g clip-path="url(#clip0_3961_2413)">
<path d="M35.5 0.5H3.5C1.8 0.5 0.5 1.8 0.5 3.5V21.5C0.5 23.2 1.9 24.5 3.5 24.5H35.5C37.2 24.5 38.5 23.2 38.5 21.5V3.5C38.5 1.8 37.1 0.5 35.5 0.5Z" fill="#DEDEDE"/>
<path d="M35.5 1.5C36.6 1.5 37.5 2.4 37.5 3.5V21.5C37.5 22.6 36.6 23.5 35.5 23.5H3.5C2.4 23.5 1.5 22.6 1.5 21.5V3.5C1.5 2.4 2.4 1.5 3.5 1.5H35.5Z" fill="white"/>
<path d="M28.8 10.6H28.5C28.1 11.6 27.8 12.1 27.5 13.6H29.4C29.1 12.1 29.1 11.4 28.8 10.6ZM31.7 16.5H30C29.9 16.5 29.9 16.5 29.8 16.4L29.6 15.5L29.5 15.3H27.1C27 15.3 26.9 15.3 26.9 15.5L26.6 16.4C26.6 16.5 26.5 16.5 26.5 16.5H24.4L24.6 16L27.5 9.2C27.5 8.7 27.8 8.5 28.3 8.5H29.8C29.9 8.5 30 8.5 30 8.7L31.4 15.2C31.5 15.6 31.6 15.9 31.6 16.3C31.7 16.4 31.7 16.4 31.7 16.5ZM18.3 16.2L18.7 14.4C18.8 14.4 18.9 14.5 18.9 14.5C19.6 14.8 20.3 15 21 14.9C21.2 14.9 21.5 14.8 21.7 14.7C22.2 14.5 22.2 14 21.8 13.6C21.6 13.4 21.3 13.3 21 13.1C20.6 12.9 20.2 12.7 19.9 12.4C18.7 11.4 19.1 10 19.8 9.3C20.4 8.9 20.7 8.5 21.5 8.5C22.7 8.5 24 8.5 24.6 8.7H24.7C24.6 9.3 24.5 9.8 24.3 10.4C23.8 10.2 23.3 10 22.8 10C22.5 10 22.2 10 21.9 10.1C21.7 10.1 21.6 10.2 21.5 10.3C21.3 10.5 21.3 10.8 21.5 11L22 11.4C22.4 11.6 22.8 11.8 23.1 12C23.6 12.3 24.1 12.8 24.2 13.4C24.4 14.3 24.1 15.1 23.3 15.7C22.8 16.1 22.6 16.3 21.9 16.3C20.5 16.3 19.4 16.4 18.5 16.1C18.4 16.3 18.4 16.3 18.3 16.2ZM14.8 16.5C14.9 15.8 14.9 15.8 15 15.5C15.5 13.3 16 11 16.4 8.8C16.5 8.6 16.5 8.5 16.7 8.5H18.5C18.3 9.7 18.1 10.6 17.8 11.7C17.5 13.2 17.2 14.7 16.8 16.2C16.8 16.4 16.7 16.4 16.5 16.4L14.8 16.5ZM5.5 8.7C5.5 8.6 5.7 8.5 5.8 8.5H9.2C9.7 8.5 10.1 8.8 10.2 9.3L11.1 13.7C11.1 13.8 11.1 13.8 11.2 13.9C11.2 13.8 11.3 13.8 11.3 13.8L13.4 8.7C13.3 8.6 13.4 8.5 13.5 8.5H15.6C15.6 8.6 15.6 8.6 15.5 8.7L12.4 16C12.3 16.2 12.3 16.3 12.2 16.4C12.1 16.5 11.9 16.4 11.7 16.4H10.2C10.1 16.4 10 16.4 10 16.2L8.4 10C8.2 9.8 7.9 9.5 7.5 9.4C6.9 9.1 5.8 8.9 5.6 8.9L5.5 8.7Z" fill="#142688"/>
</g>
<g clip-path="url(#clip1_3961_2413)">
<path d="M78.5 0.5H46.5C44.8 0.5 43.5 1.8 43.5 3.5V21.5C43.5 23.2 44.9 24.5 46.5 24.5H78.5C80.2 24.5 81.5 23.2 81.5 21.5V3.5C81.5 1.8 80.1 0.5 78.5 0.5Z" fill="#DEDEDE"/>
<path d="M78.5 1.5C79.6 1.5 80.5 2.4 80.5 3.5V21.5C80.5 22.6 79.6 23.5 78.5 23.5H46.5C45.4 23.5 44.5 22.6 44.5 21.5V3.5C44.5 2.4 45.4 1.5 46.5 1.5H78.5Z" fill="white"/>
<path d="M58.5 19.5C62.366 19.5 65.5 16.366 65.5 12.5C65.5 8.63401 62.366 5.5 58.5 5.5C54.634 5.5 51.5 8.63401 51.5 12.5C51.5 16.366 54.634 19.5 58.5 19.5Z" fill="#EB001B"/>
<path d="M66.5 19.5C70.366 19.5 73.5 16.366 73.5 12.5C73.5 8.63401 70.366 5.5 66.5 5.5C62.634 5.5 59.5 8.63401 59.5 12.5C59.5 16.366 62.634 19.5 66.5 19.5Z" fill="#F79E1B"/>
<path d="M65.5 12.4969C65.5 10.0969 64.3 7.99688 62.5 6.79688C60.7 8.09687 59.5 10.1969 59.5 12.4969C59.5 14.7969 60.7 16.9969 62.5 18.1969C64.3 16.9969 65.5 14.8969 65.5 12.4969Z" fill="#FF5F00"/>
</g>
<g clip-path="url(#clip2_3961_2413)">
<path d="M121.5 0.5H89.5C87.8 0.5 86.5 1.8 86.5 3.5V21.5C86.5 23.2 87.9 24.5 89.5 24.5H121.5C123.2 24.5 124.5 23.2 124.5 21.5V3.5C124.5 1.8 123.1 0.5 121.5 0.5Z" fill="#DEDEDE"/>
<path d="M121.5 1.5C122.6 1.5 123.5 2.4 123.5 3.5V21.5C123.5 22.6 122.6 23.5 121.5 23.5H89.5C88.4 23.5 87.5 22.6 87.5 21.5V3.5C87.5 2.4 88.4 1.5 89.5 1.5H121.5Z" fill="#006FCF"/>
<path d="M95.471 10.768L96.245 12.644H94.703L95.471 10.768ZM111.546 10.846H108.569V11.673H111.498V12.912H108.575V13.834H111.552V14.573L113.629 12.328L111.552 9.988L111.546 10.846ZM97.483 8.506H101.478L102.365 10.441L103.187 8.5H113.557L114.635 9.69L115.75 8.5H120.513L116.994 12.352L120.477 16.18H115.643L114.565 14.99L113.44 16.18H96.53L96.036 14.99H94.906L94.411 16.18H90.5L93.786 8.5H97.216L97.483 8.506ZM106.146 9.584H103.907L102.407 13.12L100.782 9.584H98.56V14.394L96.5 9.584H94.507L92.125 15.096H93.68L94.174 13.906H96.77L97.264 15.096H99.984V11.161L101.735 15.102H102.925L104.665 11.173V15.103H106.123L106.147 9.583L106.146 9.584ZM115.486 12.352L118.017 9.584H116.195L114.594 11.31L113.046 9.584H107.152V15.102H112.962L114.576 13.364L116.124 15.102H117.999L115.487 12.352H115.486Z" fill="white"/>
</g>
<defs>
<clipPath id="clip0_3961_2413">
<rect width="38" height="24" fill="white" transform="translate(0.5 0.5)"/>
</clipPath>
<clipPath id="clip1_3961_2413">
<rect width="38" height="24" fill="white" transform="translate(43.5 0.5)"/>
</clipPath>
<clipPath id="clip2_3961_2413">
<rect width="38" height="24" fill="white" transform="translate(86.5 0.5)"/>
</clipPath>
</defs>
</svg>
