<svg width="63" height="63" viewBox="0 0 63 63" fill="none" xmlns="http://www.w3.org/2000/svg">
<path d="M27.2319 7.10584C24.9224 11.1151 22.2281 15.2547 19.63 19.6225C15.2678 22.2302 11.13 24.903 7.08853 27.2173C4.71496 28.6515 2.34149 29.9553 0 31.1287C2.37357 32.3022 4.71496 33.606 7.08853 35.0402C11.13 37.3545 15.2357 40.0273 19.63 42.635C22.2281 47.0028 24.8904 51.1424 27.2319 55.1842C28.6432 57.5637 29.9582 59.9432 31.145 62.2901C32.3318 59.9432 33.6148 57.5637 35.0582 55.1842C37.3676 51.1424 40.0619 47.0354 42.66 42.635C47.0223 40.0273 51.1599 37.3545 55.2014 35.0402C57.575 33.606 59.9486 32.3022 62.2901 31.1287C59.9165 29.9553 57.575 28.6515 55.2014 27.2173C51.1599 24.903 47.0543 22.2302 42.66 19.6225C40.0619 15.2547 37.3997 11.1151 35.0582 7.10584C33.6469 4.72636 32.3318 2.34688 31.145 0C29.9582 2.34688 28.6753 4.72636 27.2319 7.10584ZM49.4921 31.1287C45.5468 33.2148 41.6016 35.464 37.6243 37.6153C35.4753 41.5919 33.2299 45.5359 31.145 49.48C29.0601 45.5359 26.8148 41.5919 24.6658 37.6153C20.6564 35.464 16.7432 33.2148 12.798 31.1287C16.7432 29.0426 20.6564 26.7609 24.6658 24.6422C26.7828 20.633 29.0601 16.7215 31.145 12.7775C33.2619 16.7215 35.5073 20.633 37.6243 24.6422C41.6016 26.7935 45.5468 29.0426 49.4921 31.1287Z" fill="#68232B"/>
</svg>
