<svg width="24" height="24" viewBox="0 0 24 24" fill="none" xmlns="http://www.w3.org/2000/svg">
<path d="M12.0004 2.4375C10.3329 2.43777 8.69451 2.87407 7.24773 3.70309C5.80095 4.53211 4.5961 5.72504 3.75273 7.1635C2.90936 8.60196 2.4568 10.236 2.43994 11.9033C2.42309 13.5707 2.84253 15.2135 3.65664 16.6688L2.83164 19.5469C2.76428 19.7721 2.75911 20.0114 2.81668 20.2394C2.87425 20.4673 2.99243 20.6755 3.15868 20.8417C3.32493 21.008 3.53307 21.1261 3.76102 21.1837C3.98898 21.2413 4.22826 21.2361 4.45352 21.1688L7.33164 20.3438C8.60693 21.0578 10.0289 21.4699 11.4883 21.5486C12.9478 21.6273 14.4058 21.3704 15.7505 20.7977C17.0952 20.2249 18.2906 19.3516 19.2451 18.2447C20.1995 17.1378 20.8876 15.8269 21.2563 14.4126C21.6251 12.9983 21.6647 11.5183 21.3722 10.0863C21.0798 8.65435 20.4629 7.30846 19.5691 6.15207C18.6753 4.99567 17.5283 4.05955 16.2162 3.41561C14.9042 2.77168 13.462 2.43707 12.0004 2.4375ZM12.0004 20.4375C10.486 20.4371 8.99965 20.029 7.69727 19.2562C7.60774 19.2085 7.50811 19.1828 7.40664 19.1813C7.35592 19.1782 7.30506 19.1846 7.25664 19.2L4.14414 20.0906C4.11157 20.1007 4.07687 20.1016 4.04379 20.0934C4.01071 20.0852 3.98049 20.0681 3.95638 20.044C3.93228 20.0199 3.9152 19.9897 3.90699 19.9566C3.89878 19.9235 3.89974 19.8888 3.90977 19.8563L4.80039 16.7438C4.82142 16.6703 4.82728 16.5934 4.81761 16.5176C4.80794 16.4419 4.78294 16.3689 4.74414 16.3031C3.79471 14.7018 3.40153 12.8314 3.62584 10.9834C3.85015 9.1353 4.67935 7.4133 5.98429 6.08559C7.28923 4.75789 8.99664 3.89903 10.8406 3.6428C12.6845 3.38657 14.5614 3.74736 16.1789 4.66896C17.7964 5.59056 19.0637 7.02123 19.7834 8.73812C20.503 10.455 20.6347 12.3617 20.1579 14.1612C19.681 15.9608 18.6224 17.5521 17.147 18.6873C15.6715 19.8225 13.862 20.4378 12.0004 20.4375ZM16.8285 13.575L14.9066 12.4781C14.7044 12.364 14.4754 12.3056 14.2432 12.3089C14.0109 12.3122 13.7837 12.3771 13.5848 12.4969L12.3848 13.2188C11.7028 12.8558 11.1446 12.2976 10.7816 11.6156L11.5035 10.4156C11.6233 10.2167 11.6882 9.98945 11.6915 9.75722C11.6948 9.52499 11.6364 9.29604 11.5223 9.09375L10.4254 7.17188C10.3189 6.9874 10.1659 6.83406 9.98167 6.72715C9.79744 6.62023 9.5884 6.56346 9.37539 6.5625C8.53164 6.5625 7.7223 6.89703 7.1248 7.49278C6.5273 8.08853 6.19038 8.89687 6.18789 9.74063C6.18666 10.8002 6.3943 11.8496 6.79892 12.8289C7.20355 13.8082 7.79723 14.6981 8.54603 15.4477C9.29482 16.1974 10.184 16.7921 11.1628 17.1979C12.1416 17.6036 13.1908 17.8125 14.2504 17.8125H14.2598C15.1035 17.81 15.9119 17.4731 16.5076 16.8756C17.1034 16.2781 17.4379 15.4688 17.4379 14.625C17.4369 14.412 17.3802 14.203 17.2732 14.0187C17.1663 13.8345 17.013 13.6815 16.8285 13.575ZM14.2598 16.6875H14.2504C12.4096 16.685 10.645 15.952 9.34427 14.6495C8.04351 13.347 7.31289 11.5814 7.31289 9.74063C7.31537 9.19524 7.53377 8.67304 7.92029 8.28827C8.30682 7.90351 8.83001 7.68749 9.37539 7.6875C9.40429 7.68987 9.43116 7.7033 9.45039 7.725L10.5473 9.64688C10.5623 9.6762 10.5694 9.70897 10.5677 9.74188C10.5661 9.7748 10.5558 9.8067 10.5379 9.83438L9.66602 11.3063C9.61666 11.382 9.58732 11.469 9.58076 11.5592C9.57421 11.6494 9.59064 11.7398 9.62852 11.8219C10.141 12.9531 11.0473 13.8594 12.1785 14.3719C12.2606 14.4098 12.351 14.4262 12.4412 14.4196C12.5313 14.4131 12.6184 14.3837 12.6941 14.3344L14.166 13.4625C14.1937 13.4446 14.2256 13.4343 14.2585 13.4327C14.2914 13.431 14.3242 13.4381 14.3535 13.4531L16.2754 14.55C16.2971 14.5692 16.3105 14.5961 16.3129 14.625C16.3129 15.1704 16.0969 15.6936 15.7121 16.0801C15.3274 16.4666 14.8052 16.685 14.2598 16.6875Z" fill="white"/>
</svg>
