<svg width="1418" height="132" viewBox="0 0 1418 132" fill="none" xmlns="http://www.w3.org/2000/svg">
<path d="M811.906 106.895L1263.73 106.895C1264.34 106.895 1264.85 107.416 1264.85 108.063C1264.85 108.709 1264.34 109.231 1263.73 109.231L811.906 109.231C811.279 109.231 810.792 108.709 810.792 108.063C810.769 107.416 811.279 106.895 811.906 106.895Z" fill="url(#paint0_linear_3334_25446)"/>
<path d="M1267.81 108.018C1267.81 106.477 1268.99 105.234 1270.46 105.234C1271.92 105.234 1273.1 106.477 1273.1 108.018C1273.1 109.559 1271.92 110.801 1270.46 110.801C1268.99 110.826 1267.81 109.559 1267.81 108.018Z" fill="url(#paint1_linear_3334_25446)"/>
<path d="M1274.95 108.026C1274.95 105.839 1276.62 104.074 1278.68 104.074C1280.75 104.074 1282.42 105.839 1282.42 108.026C1282.42 110.188 1280.75 111.953 1278.68 111.953C1276.62 111.977 1274.95 110.213 1274.95 108.026Z" fill="url(#paint2_linear_3334_25446)"/>
<path d="M802.574 108.018C802.574 106.477 803.758 105.234 805.221 105.234C806.683 105.234 807.867 106.477 807.867 108.018C807.867 109.559 806.683 110.801 805.221 110.801C803.758 110.826 802.574 109.559 802.574 108.018Z" fill="url(#paint3_linear_3334_25446)"/>
<path d="M793.371 108.026C793.371 105.839 795.043 104.074 797.109 104.074C799.175 104.074 800.847 105.839 800.847 108.026C800.847 110.188 799.175 111.953 797.109 111.953C795.043 111.977 793.371 110.213 793.371 108.026Z" fill="url(#paint4_linear_3334_25446)"/>
<path d="M157.782 106.895L609.1 106.895C609.704 106.895 610.215 107.416 610.215 108.063C610.215 108.709 609.704 109.231 609.1 109.231L157.782 109.231C157.155 109.231 156.645 108.709 156.645 108.063C156.668 107.416 157.155 106.895 157.782 106.895Z" fill="url(#paint5_linear_3334_25446)"/>
<path d="M613.152 108.018C613.152 106.477 614.336 105.234 615.799 105.234C617.262 105.234 618.446 106.477 618.446 108.018C618.446 109.559 617.262 110.801 615.799 110.801C614.336 110.826 613.152 109.559 613.152 108.018Z" fill="url(#paint6_linear_3334_25446)"/>
<path d="M624.003 111.977C626.068 111.977 627.741 110.208 627.741 108.026C627.741 105.843 626.068 104.074 624.003 104.074C621.939 104.074 620.266 105.843 620.266 108.026C620.266 110.208 621.939 111.977 624.003 111.977Z" fill="url(#paint7_linear_3334_25446)"/>
<path d="M148.422 108.018C148.422 106.477 149.606 105.234 151.069 105.234C152.531 105.234 153.715 106.477 153.715 108.018C153.715 109.559 152.531 110.801 151.069 110.801C149.606 110.801 148.422 109.559 148.422 108.018Z" fill="url(#paint8_linear_3334_25446)"/>
<path d="M139.219 108.026C139.219 105.839 140.89 104.074 142.957 104.074C145.023 104.074 146.694 105.839 146.694 108.026C146.694 110.188 145.023 111.953 142.957 111.953C140.89 111.977 139.219 110.213 139.219 108.026Z" fill="url(#paint9_linear_3334_25446)"/>
<path d="M707.769 89.6797C706.097 92.7366 704.147 95.8929 702.267 99.2232C699.109 101.211 696.114 103.249 693.189 105.014C691.471 106.108 689.753 107.102 688.059 107.996C689.777 108.891 691.471 109.885 693.189 110.979C696.114 112.743 699.086 114.781 702.267 116.769C704.147 120.1 706.074 123.256 707.769 126.338C708.79 128.152 709.742 129.966 710.601 131.756C711.46 129.966 712.389 128.152 713.434 126.338C715.105 123.256 717.055 120.125 718.936 116.769C722.093 114.781 725.088 112.743 728.013 110.979C729.731 109.885 731.449 108.891 733.144 107.996C731.426 107.102 729.731 106.108 728.013 105.014C725.088 103.249 722.116 101.211 718.936 99.2232C717.055 95.8929 715.128 92.7366 713.434 89.6797C712.412 87.8654 711.46 86.0511 710.601 84.2617C709.742 86.0511 708.814 87.8654 707.769 89.6797ZM723.881 107.996C721.025 109.587 718.17 111.302 715.291 112.942C713.735 115.974 712.11 118.981 710.601 121.989C709.092 118.981 707.467 115.974 705.912 112.942C703.01 111.302 700.177 109.587 697.322 107.996C700.177 106.406 703.01 104.666 705.912 103.051C707.444 99.9937 709.092 97.0113 710.601 94.0041C712.133 97.0113 713.759 99.9937 715.291 103.051C718.17 104.691 721.025 106.406 723.881 107.996Z" fill="url(#paint10_linear_3334_25446)"/>
<path d="M633.057 107.985C632.012 106.941 631.269 105.674 630.991 104.406C630.48 102.368 630.851 100.579 631.408 99.2865C632.662 96.6521 634.45 96.503 634.334 96.4284C634.427 96.4533 632.801 97.0995 632.175 99.5599C631.896 100.753 631.896 102.319 632.569 103.81C633.196 105.276 634.543 106.494 636.353 107.016C638.118 107.563 640.3 107.438 642.273 106.643C644.293 105.823 646.243 104.307 648.124 102.418C650.028 100.554 651.862 98.2676 654.114 96.0308C656.342 93.8189 659.151 91.5572 662.68 90.5383C666.116 89.5193 669.947 89.8175 672.849 92.0046C675.612 94.1668 677.005 97.3977 676.819 100.529C676.726 102.095 676.146 103.586 675.333 104.68C674.52 105.773 673.499 106.544 672.501 106.991C670.481 107.935 668.461 107.886 666.929 107.339C663.864 106.146 662.773 103.934 662.262 102.691C661.775 101.374 661.775 100.728 661.775 100.728C661.775 100.728 662.1 101.3 662.936 102.219C663.748 103.089 665.28 104.431 667.486 104.63C668.531 104.704 669.761 104.431 670.783 103.661C671.827 102.89 672.501 101.722 672.408 100.355C672.361 98.9883 671.433 97.2486 669.993 96.3042C668.624 95.3846 666.395 95.1112 664.073 95.8071C659.314 97.1491 655.53 102.07 650.979 105.897C650.12 106.618 649.215 107.289 648.263 107.91C649.215 108.532 650.12 109.203 650.979 109.924C655.53 113.751 659.314 118.672 664.073 120.014C666.395 120.71 668.624 120.436 669.993 119.517C671.433 118.572 672.338 116.833 672.408 115.466C672.501 114.099 671.827 112.956 670.783 112.16C669.738 111.39 668.531 111.117 667.486 111.191C665.28 111.39 663.748 112.732 662.936 113.602C662.1 114.521 661.775 115.093 661.775 115.093C661.775 115.093 661.752 114.447 662.262 113.13C662.773 111.912 663.841 109.7 666.929 108.507C668.461 107.96 670.481 107.886 672.501 108.855C673.499 109.327 674.52 110.073 675.333 111.191C676.146 112.285 676.749 113.776 676.819 115.342C677.028 118.473 675.612 121.704 672.849 123.866C669.947 126.053 666.116 126.351 662.68 125.332C659.175 124.313 656.342 122.052 654.114 119.84C651.862 117.603 650.004 115.317 648.124 113.453C646.243 111.564 644.316 110.048 642.273 109.228C640.3 108.408 638.141 108.308 636.353 108.855C634.566 109.377 633.196 110.595 632.569 112.061C631.919 113.552 631.919 115.118 632.175 116.311C632.801 118.771 634.427 119.417 634.334 119.442C634.45 119.393 632.662 119.219 631.408 116.584C630.851 115.317 630.503 113.502 630.991 111.464C631.269 110.296 631.989 109.029 633.057 107.985Z" fill="url(#paint11_linear_3334_25446)"/>
<path d="M788.158 107.999C789.202 109.043 789.945 110.31 790.224 111.578C790.711 113.616 790.363 115.405 789.806 116.697C788.552 119.332 786.765 119.481 786.881 119.556C786.788 119.531 788.436 118.885 789.04 116.424C789.319 115.231 789.319 113.665 788.669 112.174C788.042 110.708 786.695 109.49 784.884 108.968C783.12 108.421 780.938 108.546 778.964 109.341C776.944 110.161 774.994 111.677 773.114 113.566C771.233 115.43 769.376 117.716 767.124 119.953C764.895 122.165 762.086 124.427 758.581 125.446C755.145 126.465 751.314 126.166 748.412 123.979C745.649 121.817 744.256 118.586 744.442 115.455C744.535 113.889 745.115 112.423 745.928 111.304C746.764 110.211 747.762 109.44 748.783 108.968C750.803 108.024 752.823 108.073 754.355 108.62C757.42 109.813 758.511 112.025 759.022 113.243C759.509 114.56 759.486 115.206 759.486 115.206C759.486 115.206 759.184 114.635 758.325 113.715C757.513 112.845 755.98 111.503 753.775 111.304C752.73 111.23 751.5 111.503 750.478 112.274C749.434 113.044 748.76 114.212 748.853 115.579C748.9 116.946 749.828 118.686 751.244 119.63C752.614 120.55 754.843 120.823 757.164 120.127C761.924 118.785 765.708 113.864 770.235 110.037C771.094 109.316 771.999 108.645 772.951 108.024C771.999 107.402 771.094 106.731 770.235 106.011C765.685 102.183 761.9 97.2624 757.164 95.9204C754.82 95.2245 752.614 95.4979 751.244 96.4174C749.828 97.3619 748.9 99.1016 748.853 100.468C748.737 101.835 749.434 103.003 750.478 103.774C751.523 104.544 752.73 104.843 753.775 104.743C755.98 104.544 757.513 103.202 758.325 102.332C759.161 101.413 759.486 100.841 759.486 100.841C759.486 100.841 759.509 101.487 759.022 102.805C758.511 104.022 757.443 106.234 754.355 107.452C752.823 107.999 750.803 108.073 748.783 107.104C747.762 106.632 746.764 105.886 745.928 104.793C745.115 103.699 744.535 102.208 744.442 100.642C744.233 97.511 745.649 94.2801 748.412 92.1179C751.314 89.9308 755.145 89.6326 758.581 90.6515C762.086 91.6705 764.895 93.9321 767.124 96.1441C769.376 98.3808 771.233 100.667 773.114 102.531C774.994 104.42 776.944 105.911 778.964 106.756C780.938 107.576 783.12 107.676 784.884 107.129C786.672 106.607 788.042 105.389 788.669 103.923C789.319 102.432 789.319 100.866 789.04 99.6732C788.413 97.2127 786.788 96.5665 786.881 96.5417C786.765 96.5914 788.552 96.7654 789.806 99.3998C790.363 100.667 790.711 102.482 790.224 104.52C789.945 105.688 789.202 106.955 788.158 107.999Z" fill="url(#paint12_linear_3334_25446)"/>
<path d="M677.225 108.026C678.432 107.33 679.569 106.46 680.568 105.466C683.191 103.006 684.979 100.098 686.07 99.0292C688.229 96.9167 691.804 95.1521 693.128 96.4693C694.428 97.7865 692.988 101.688 690.527 104.099C689.506 105.093 686.882 106.783 683.725 108.026C686.882 109.269 689.506 110.983 690.527 111.953C692.988 114.363 694.404 118.265 693.128 119.583C691.804 120.9 688.229 119.135 686.07 117.023C684.979 115.979 683.191 113.071 680.568 110.586C679.593 109.617 678.432 108.747 677.225 108.026Z" fill="url(#paint13_linear_3334_25446)"/>
<path d="M743.952 108.026C742.745 108.722 741.607 109.592 740.609 110.586C738.009 113.071 736.198 115.979 735.107 117.023C732.948 119.11 729.373 120.9 728.049 119.583C726.749 118.29 728.189 114.363 730.649 111.953C731.671 110.959 734.294 109.269 737.452 108.026C734.294 106.783 731.648 105.068 730.649 104.099C728.189 101.688 726.772 97.7865 728.049 96.4693C729.373 95.1521 732.948 96.9166 735.107 99.0291C736.221 100.073 738.009 102.981 740.609 105.466C741.607 106.435 742.768 107.305 743.952 108.026Z" fill="url(#paint14_linear_3334_25446)"/>
<path d="M719.977 98.1796C718.955 96.0423 717.47 92.4138 716.541 91.0469C717.586 92.5381 720.047 94.8742 721.602 96.4897C723.134 98.13 725.34 100.715 726.756 101.808C725.433 100.814 721.974 99.2483 719.977 98.1796Z" fill="url(#paint15_linear_3334_25446)"/>
<path d="M701.236 98.1796C699.216 99.2483 695.78 100.814 694.457 101.808C695.896 100.69 698.079 98.13 699.611 96.4897C701.166 94.8742 703.627 92.5381 704.672 91.0469C703.743 92.4138 702.258 96.0423 701.236 98.1796Z" fill="url(#paint16_linear_3334_25446)"/>
<path d="M701.236 117.817C702.258 119.93 703.743 123.583 704.672 124.95C703.604 123.434 701.166 121.123 699.611 119.507C698.079 117.867 695.873 115.282 694.457 114.164C695.78 115.183 699.24 116.749 701.236 117.817Z" fill="url(#paint17_linear_3334_25446)"/>
<path d="M719.977 117.906C721.997 116.837 725.433 115.271 726.756 114.277C725.34 115.396 723.134 117.956 721.602 119.621C720.047 121.261 717.609 123.572 716.541 125.064C717.47 123.672 718.955 120.018 719.977 117.906Z" fill="url(#paint18_linear_3334_25446)"/>
<path d="M739.542 119.65C738.822 119.6 738.474 117.637 739.031 116.096C739.287 115.35 740.285 113.759 741.562 112.517C742.839 111.224 744.348 110.255 745.114 109.684C744.231 110.379 743.187 111.896 742.583 113.436C741.933 114.952 741.724 116.444 741.515 117.065C741.051 118.283 740.285 119.724 739.542 119.65Z" fill="url(#paint19_linear_3334_25446)"/>
<path d="M681.64 96.302C682.36 96.3517 682.732 98.3151 682.174 99.856C681.919 100.626 680.921 102.192 679.644 103.46C678.367 104.752 676.858 105.696 676.092 106.293C676.974 105.597 678.042 104.081 678.646 102.54C679.296 101.024 679.505 99.5329 679.713 98.9364C680.155 97.6938 680.921 96.2523 681.64 96.302Z" fill="url(#paint20_linear_3334_25446)"/>
<path d="M739.542 96.302C738.822 96.3517 738.474 98.3151 739.031 99.856C739.287 100.626 740.285 102.192 741.562 103.46C742.839 104.752 744.348 105.696 745.114 106.293C744.231 105.597 743.187 104.081 742.583 102.54C741.933 101.024 741.724 99.5329 741.515 98.9364C741.051 97.6938 740.285 96.2523 739.542 96.302Z" fill="url(#paint21_linear_3334_25446)"/>
<path d="M681.64 119.65C682.36 119.6 682.732 117.637 682.174 116.096C681.919 115.35 680.921 113.759 679.644 112.517C678.367 111.224 676.858 110.255 676.092 109.684C676.974 110.379 678.042 111.896 678.646 113.436C679.296 114.952 679.505 116.444 679.713 117.065C680.155 118.283 680.921 119.724 681.64 119.65Z" fill="url(#paint22_linear_3334_25446)"/>
<path d="M65.1293 74.8383C65.464 82.1689 63.2807 90.4716 56.9859 94.0732C54.0537 95.7943 50.5477 95.8102 48.0458 94.7106C45.5438 93.6589 43.998 91.3322 43.2968 88.9099C42.4203 85.7864 42.8825 82.8063 43.9821 80.5753C41.751 81.6749 38.7709 82.137 35.6315 81.2605C33.2252 80.5594 30.8825 79.0135 29.8467 76.5116C28.7471 74.0096 28.763 70.5036 30.4841 67.5714C34.0857 61.2766 42.3884 59.0934 49.719 59.444C54.723 59.6033 59.966 60.2567 64.7787 59.7786C64.3325 64.5913 64.9699 69.8343 65.1293 74.8383ZM55.727 77.3721C55.727 77.3721 55.4082 76.5275 53.8146 75.4598C53.0497 74.9658 51.8545 74.4239 50.3406 74.2327C50.1653 72.7028 49.6075 71.5076 49.1135 70.7586C48.0457 69.165 47.2011 68.8463 47.2011 68.8463C46.8506 68.5276 50.1334 71.7467 47.743 76.8303C52.8266 74.4399 56.0457 77.7227 55.727 77.3721ZM38.7709 89.9776C39.4084 93.3879 41.5598 97.4517 45.8147 99.4915C49.8944 101.484 55.2011 101.468 59.7269 98.87C68.9221 93.4358 70.6591 82.4079 69.7827 74.5833C69.0177 67.428 67.5675 61.1969 68.5396 56.0336C63.3763 57.0057 57.1453 55.5555 49.99 54.7906C42.1653 53.9141 31.1216 55.6352 25.7033 64.8463C23.1057 69.3722 23.0898 74.6949 25.0818 78.7745C27.1216 83.0135 31.1853 85.1808 34.5957 85.8183C35.9662 86.0733 37.2729 86.137 38.5319 86.0733C38.4522 87.3003 38.5159 88.623 38.7709 89.9776Z" fill="url(#paint23_linear_3334_25446)"/>
<path d="M56.1099 68.487C55.584 68.3914 55.0422 68.2639 54.5004 68.1205C49.6877 67.1325 44.0782 64.7261 39.0902 66.8775C36.6519 67.8655 34.7396 70.1763 34.7715 72.8535C34.628 75.5468 36.9706 77.6981 39.5364 77.9372C42.0861 78.3037 44.6041 77.0288 45.8311 75.1802C47.106 73.3157 46.9148 70.9571 45.9427 69.6026C48.7953 72.9651 44.5403 79.8336 38.4846 78.4631C35.6001 78.0965 33.0344 75.0527 33.4647 71.8177C33.64 68.5827 36.1738 65.8257 39.0105 64.6305C45.0981 62.1285 50.9148 64.2799 55.345 64.7261C56.859 64.9652 58.2613 65.0608 59.5362 65.0608C59.5362 66.3516 59.6318 67.754 59.8709 69.252C60.3171 73.6822 62.4685 79.5149 59.9665 85.5865C58.7713 88.4232 56.0143 90.9729 52.7793 91.1323C49.5283 91.5626 46.5005 88.9969 46.1339 86.1124C44.7634 80.0567 51.6319 75.7858 54.9944 78.6543C53.6398 77.6663 51.2813 77.491 49.4168 78.7659C47.5523 80.0089 46.2933 82.5108 46.6598 85.0606C46.8989 87.6263 49.0662 89.9849 51.7435 89.8255C54.4207 89.8415 56.7155 87.9451 57.7195 85.5068C59.8709 80.5348 57.4645 74.9093 56.4765 70.0966C56.3331 69.5548 56.2215 69.0129 56.1099 68.487Z" fill="url(#paint24_linear_3334_25446)"/>
<path d="M22.434 102.14C21.446 97.7412 20.3463 93.5659 19.932 89.5659C18.2746 79.2552 19.5496 69.3908 23.932 62.5063C28.1391 55.4626 35.0554 52.5941 39.7406 52.1638C44.5533 51.7016 47.2147 52.9606 47.2147 52.9606C47.2147 52.9606 44.7605 51.351 39.6928 51.3032C34.8164 51.2076 26.9598 53.5343 21.6372 60.9446C16.1551 68.0999 14.0357 79.1118 15.2946 90.1077C15.693 95.5579 17.0476 101.136 17.94 106.602C23.4061 107.494 28.9837 108.833 34.4339 109.247C45.4298 110.506 56.4417 108.371 63.597 102.904C71.0073 97.5818 73.35 89.7253 73.2384 84.8488C73.1747 79.7811 71.5811 77.327 71.5811 77.327C71.5811 77.327 72.8559 79.9883 72.3778 84.801C71.9476 89.4862 69.0791 96.4025 62.0353 100.61C55.1509 104.992 45.2864 106.267 34.9757 104.61C31.0236 104.227 26.8324 103.128 22.434 102.14Z" fill="url(#paint25_linear_3334_25446)"/>
<path d="M14.4377 110.102C14.4536 109.911 14.4536 109.736 14.4695 109.561C15.4257 103.473 11.5851 91.1384 10.1349 78.9154C9.60902 72.7641 10.4058 66.2143 13.5771 61.3697C16.5731 56.4295 21.4814 53.6726 25.1467 53.306C20.8759 53.7363 15.617 56.557 12.0632 61.6088C8.36601 66.5968 6.868 73.4812 6.66083 79.9194C6.6927 92.9552 8.39787 104.286 7.55325 109.083C7.31421 113.465 6.19869 117.656 4.09512 120.461C6.89989 118.357 11.0751 117.226 15.4735 117.003C20.2703 116.158 31.5849 117.879 44.6366 117.895C51.0589 117.688 57.9433 116.19 62.9473 112.493C67.999 108.939 70.8197 103.68 71.25 99.4093C70.8835 103.075 68.1265 107.983 63.1863 110.979C58.3417 114.15 51.792 114.947 45.6406 114.421C33.4335 112.971 21.099 109.13 15.0114 110.087C14.8042 110.087 14.613 110.087 14.4377 110.102Z" fill="url(#paint26_linear_3334_25446)"/>
<path d="M3.83446 50.9904C3.80259 52.1378 6.27268 53.2374 8.39218 53.3967C10.4958 53.5402 18.3523 52.0103 21.3164 52.2175C17.9061 51.9147 10.7985 49.3968 8.59936 49.2533C6.41611 49.094 3.8504 49.843 3.83446 50.9904Z" fill="url(#paint27_linear_3334_25446)"/>
<path d="M73.5856 120.761C72.4382 120.793 71.3386 118.323 71.1793 116.204C71.0358 114.1 72.5657 106.26 72.3586 103.279C72.6614 106.69 75.1792 113.797 75.3227 115.997C75.498 118.164 74.733 120.73 73.5856 120.761Z" fill="url(#paint28_linear_3334_25446)"/>
<path d="M0.88511 74.4526C2.03251 74.596 3.59426 71.2494 4.96477 68.5562C5.60222 67.1857 6.84521 63.8072 9.15595 60.7156C11.4029 57.5921 14.6858 54.9786 16.7734 54.0703C14.3511 55.1061 10.5584 56.875 7.45081 59.4726C4.27952 61.9746 1.95284 65.1777 1.20384 66.7714C-0.421646 70.0064 -0.262293 74.3251 0.88511 74.4526Z" fill="url(#paint29_linear_3334_25446)"/>
<path d="M50.1098 123.689C49.9664 122.542 53.313 120.98 56.0062 119.609C57.3767 118.972 60.7552 117.729 63.8468 115.418C66.9703 113.171 69.5838 109.888 70.4922 107.801C69.4563 110.223 67.6874 114.016 65.1058 117.123C62.6038 120.295 59.4006 122.621 57.807 123.37C54.5561 124.996 50.2373 124.836 50.1098 123.689Z" fill="url(#paint30_linear_3334_25446)"/>
<path d="M32.0488 92.5201C28.4951 90.4802 26.1843 87.3408 24.7342 85.0938C22.8537 82.0978 22.0728 80.2174 22.0728 80.2174C22.0728 80.2174 22.519 82.1935 23.9692 85.5082C25.0847 87.8827 26.8856 91.3886 30.4074 94.1615C33.1803 97.6834 36.7022 99.4682 39.0608 100.584C42.3595 102.05 44.3516 102.496 44.3516 102.496C44.3516 102.496 42.4711 101.715 39.4751 99.8348C37.244 98.3686 34.1046 96.0738 32.0488 92.5201Z" fill="url(#paint31_linear_3334_25446)"/>
<path d="M27.8634 96.7195C25.3455 94.5044 24.0228 92.4645 23.5128 92.7036C23.0507 92.8789 23.5447 95.5721 25.9033 98.6796C29.0108 101.038 31.72 101.532 31.8793 101.07C32.1184 100.56 30.0785 99.2374 27.8634 96.7195Z" fill="url(#paint32_linear_3334_25446)"/>
<path d="M124.562 106.866C124.562 106.866 123.208 107.71 120.578 108.714C118.013 109.623 113.694 110.961 108.69 108.953C103.686 106.914 100.132 101.687 96.2918 97.3359C92.5468 92.9854 86.8576 89.4316 81.3437 90.7703C78.762 91.3758 76.7541 93.2404 75.9254 95.2005C75.0648 97.1447 75.4314 99.2961 76.3398 101.049C78.2043 104.587 81.7421 106.133 84.1803 105.83C89.503 104.81 89.5827 100.539 89.5986 100.938C89.5986 100.938 89.8695 101.591 89.5349 103.041C89.2002 104.412 88.005 106.85 84.6265 107.933C81.3437 108.937 76.2601 107.599 73.2003 102.866C71.7342 100.587 70.778 97.1128 72.1007 93.6866C73.3437 90.3719 76.3716 87.5352 80.3397 86.5631C88.4831 84.7145 95.3994 90.0531 99.0966 94.9615C102.937 99.9973 105.646 104.842 109.646 106.977C113.582 109.161 117.79 108.587 120.403 108.029C123.08 107.471 124.562 106.866 124.562 106.866Z" fill="url(#paint33_linear_3334_25446)"/>
<path d="M116.841 112.965C117.016 113.332 114.961 114.702 111.503 114.989C108.092 115.34 103.471 114.192 100.124 111.706C98.4668 110.543 95.8214 108.152 93.9091 104.694C91.8852 101.427 90.2438 96.9493 86.3553 95.276C84.4749 94.4314 82.1482 94.5748 80.6502 96.025C79.0407 97.3795 79.0725 99.8815 80.3156 101.475C81.4789 103.117 83.5506 103.866 85.2717 103.563C87.0247 103.292 88.2518 101.921 88.5067 100.631C88.1402 104.057 81.9411 105.316 79.471 101.14C78.1323 99.3078 78.4829 96.2162 80.5546 94.7182C82.4829 93.0768 85.4151 93.029 87.6143 94.017C92.2995 96.1365 94.2119 100.583 96.3314 103.356C98.3393 106.304 100.586 108.025 102.021 109.061C104.873 111.164 108.538 112.423 111.534 112.694C114.499 113.013 116.698 112.519 116.841 112.965Z" fill="url(#paint34_linear_3334_25446)"/>
<path d="M97.3047 115.265C96.8426 116.062 94.3246 115.218 93.0179 113.433C92.3486 112.604 91.3127 110.277 91.1215 107.823C90.9462 105.369 91.3605 103.042 90.5159 101.863C91.4402 103.09 91.8227 105.688 92.7629 107.552C93.7032 109.465 95.0896 110.787 95.5995 111.441C96.5557 112.779 97.7669 114.5 97.3047 115.265Z" fill="url(#paint35_linear_3334_25446)"/>
<path d="M86.9804 117.737C86.088 117.625 85.7692 115.665 86.1358 114.088C86.4864 112.462 89.323 107.235 89.7852 105.147C89.2752 107.681 89.6736 113.195 89.3389 114.677C88.9884 116.175 87.8728 117.848 86.9804 117.737Z" fill="url(#paint36_linear_3334_25446)"/>
<path d="M78.3734 111.814C78.4052 110.922 79.5367 110.173 80.4451 109.95C81.3056 109.982 85.4968 109.774 86.6602 108.436C85.6402 109.79 82.5964 112.962 81.1462 113.121C79.8554 113.424 78.3415 112.707 78.3734 111.814Z" fill="url(#paint37_linear_3334_25446)"/>
<path d="M17.6863 -0.000842145C17.6863 -0.000842145 16.8416 1.3378 15.8377 3.98319C14.9293 6.54891 13.5907 10.8676 15.5986 15.8716C17.6385 20.8755 22.8655 24.4293 27.2161 28.2699C31.5667 32.0149 35.1204 37.7041 33.7818 43.218C33.1762 45.7996 31.3117 47.8076 29.3515 48.6363C27.4073 49.4968 25.2559 49.1303 23.503 48.2219C19.9651 46.3733 18.4193 42.8196 18.7221 40.3813C19.742 35.0587 24.0129 34.979 23.6145 34.979C23.6145 34.979 22.9611 34.7081 21.495 35.0427C20.1245 35.3774 17.6863 36.5726 16.6026 39.9511C15.5986 43.2339 16.9373 48.3175 21.6703 51.3773C23.9492 52.8434 27.4233 53.7996 30.8495 52.4769C34.1643 51.2339 37.0168 48.206 37.973 44.2379C39.8216 36.0945 34.483 29.1782 29.5587 25.4811C24.5229 21.6404 19.6783 18.9313 17.5269 14.9313C15.3596 10.9951 15.9333 6.78796 16.4751 4.17443C17.0807 1.48122 17.6863 -0.000842145 17.6863 -0.000842145Z" fill="url(#paint38_linear_3334_25446)"/>
<path d="M11.576 7.69518C11.1935 7.51989 9.83892 9.57564 9.55207 13.0338C9.20147 16.4441 10.3489 21.0656 12.8349 24.4122C13.9982 26.0696 16.3887 28.7149 19.8468 30.6273C23.1137 32.6512 27.5918 34.2926 29.2651 38.181C30.1097 40.0615 29.9663 42.3882 28.5161 43.9021C27.1615 45.5116 24.6595 45.4798 23.0819 44.2368C21.4404 43.0734 20.6914 41.0017 20.9783 39.2806C21.2492 37.5276 22.6357 36.3006 23.9105 36.0456C20.4843 36.4121 19.2253 42.6113 23.4006 45.0814C25.2332 46.42 28.3248 46.0694 29.8228 43.9977C31.4643 42.0694 31.5121 39.1372 30.524 36.938C28.4045 32.2528 23.9424 30.3564 21.1854 28.2209C18.2373 26.213 16.5162 23.966 15.4803 22.5317C13.3767 19.6792 12.1019 16.0138 11.8469 13.0178C11.5282 10.0537 12.0222 7.85455 11.576 7.69518Z" fill="url(#paint39_linear_3334_25446)"/>
<path d="M9.26177 27.2346C8.46497 27.6968 9.30958 30.2147 11.0944 31.5215C11.9231 32.1908 14.2498 33.2266 16.7039 33.4179C19.1581 33.5932 21.4848 33.1788 22.6641 34.0234C21.437 33.0991 18.8394 32.7167 16.9749 31.7924C15.0466 30.8521 13.7398 29.4657 13.0864 28.9557C11.7478 27.9836 10.0267 26.7725 9.26177 27.2346Z" fill="url(#paint40_linear_3334_25446)"/>
<path d="M6.78153 37.5742C6.89308 38.4666 8.85323 38.7853 10.4309 38.4347C12.0564 38.0841 17.2835 35.2475 19.3711 34.7853C16.8372 35.2953 11.3233 34.8969 9.84126 35.2316C8.34326 35.5662 6.66998 36.6817 6.78153 37.5742Z" fill="url(#paint41_linear_3334_25446)"/>
<path d="M12.7423 46.1909C13.6348 46.159 14.3838 45.0435 14.6069 44.1192C14.5909 43.2587 14.7821 39.0675 16.1367 37.9041C14.7662 38.924 11.5949 41.9678 11.4356 43.418C11.1328 44.7088 11.8499 46.2228 12.7423 46.1909Z" fill="url(#paint42_linear_3334_25446)"/>
<path d="M1352.86 74.8383C1352.53 82.1689 1354.71 90.4716 1361 94.0732C1363.94 95.7943 1367.44 95.8102 1369.94 94.7106C1372.45 93.6589 1373.99 91.3322 1374.69 88.9099C1375.57 85.7864 1375.11 82.8063 1374.01 80.5753C1376.24 81.6749 1379.22 82.137 1382.36 81.2605C1384.77 80.5594 1387.11 79.0135 1388.14 76.5116C1389.24 74.0096 1389.23 70.5036 1387.51 67.5714C1383.9 61.2766 1375.6 59.0934 1368.27 59.444C1363.27 59.6033 1358.02 60.2567 1353.21 59.7786C1353.66 64.5913 1353.02 69.8343 1352.86 74.8383ZM1362.26 77.3721C1362.26 77.3721 1362.58 76.5275 1364.18 75.4598C1364.94 74.9658 1366.14 74.4239 1367.65 74.2327C1367.82 72.7028 1368.38 71.5076 1368.88 70.7586C1369.94 69.165 1370.79 68.8463 1370.79 68.8463C1371.14 68.5276 1367.86 71.7467 1370.25 76.8303C1365.16 74.4399 1361.94 77.7227 1362.26 77.3721ZM1379.22 89.9776C1378.58 93.3879 1376.43 97.4517 1372.18 99.4915C1368.1 101.484 1362.79 101.468 1358.26 98.87C1349.07 93.4358 1347.33 82.4079 1348.21 74.5833C1348.97 67.428 1350.42 61.1969 1349.45 56.0336C1354.61 57.0057 1360.84 55.5555 1368 54.7906C1375.82 53.9141 1386.87 55.6352 1392.29 64.8463C1394.88 69.3722 1394.9 74.6949 1392.91 78.7745C1390.87 83.0135 1386.8 85.1808 1383.39 85.8183C1382.02 86.0733 1380.72 86.137 1379.46 86.0733C1379.54 87.3003 1379.47 88.623 1379.22 89.9776Z" fill="url(#paint43_linear_3334_25446)"/>
<path d="M1361.88 68.487C1362.41 68.3914 1362.95 68.2639 1363.49 68.1205C1368.3 67.1325 1373.91 64.7261 1378.9 66.8775C1381.34 67.8655 1383.25 70.1763 1383.22 72.8535C1383.36 75.5468 1381.02 77.6981 1378.46 77.9372C1375.91 78.3037 1373.39 77.0288 1372.16 75.1802C1370.89 73.3157 1371.08 70.9571 1372.05 69.6026C1369.2 72.9651 1373.45 79.8336 1379.51 78.4631C1382.39 78.0965 1384.96 75.0527 1384.53 71.8177C1384.35 68.5827 1381.82 65.8257 1378.98 64.6305C1372.89 62.1285 1367.08 64.2799 1362.65 64.7261C1361.13 64.9652 1359.73 65.0608 1358.46 65.0608C1358.46 66.3516 1358.36 67.754 1358.12 69.252C1357.68 73.6822 1355.52 79.5149 1358.03 85.5865C1359.22 88.4232 1361.98 90.9729 1365.21 91.1323C1368.46 91.5626 1371.49 88.9969 1371.86 86.1124C1373.23 80.0567 1366.36 75.7858 1363 78.6543C1364.35 77.6663 1366.71 77.491 1368.58 78.7659C1370.44 80.0089 1371.7 82.5108 1371.33 85.0606C1371.09 87.6263 1368.93 89.9849 1366.25 89.8255C1363.57 89.8415 1361.28 87.9451 1360.27 85.5068C1358.12 80.5348 1360.53 74.9093 1361.52 70.0966C1361.66 69.5548 1361.77 69.0129 1361.88 68.487Z" fill="url(#paint44_linear_3334_25446)"/>
<path d="M1395.57 102.14C1396.56 97.7412 1397.66 93.5659 1398.07 89.5659C1399.73 79.2552 1398.45 69.3908 1394.07 62.5063C1389.86 55.4626 1382.95 52.5941 1378.26 52.1638C1373.45 51.7016 1370.79 52.9606 1370.79 52.9606C1370.79 52.9606 1373.24 51.351 1378.31 51.3032C1383.19 51.2076 1391.04 53.5343 1396.37 60.9446C1401.85 68.0999 1403.97 79.1118 1402.71 90.1077C1402.31 95.5579 1400.96 101.136 1400.06 106.602C1394.6 107.494 1389.02 108.833 1383.57 109.247C1372.57 110.506 1361.56 108.371 1354.41 102.904C1347 97.5818 1344.65 89.7253 1344.77 84.8488C1344.83 79.7811 1346.42 77.327 1346.42 77.327C1346.42 77.327 1345.15 79.9883 1345.63 84.801C1346.06 89.4862 1348.92 96.4025 1355.97 100.61C1362.85 104.992 1372.72 106.267 1383.03 104.61C1386.98 104.227 1391.17 103.128 1395.57 102.14Z" fill="url(#paint45_linear_3334_25446)"/>
<path d="M1403.57 110.102C1403.56 109.911 1403.56 109.736 1403.54 109.561C1402.58 103.473 1406.42 91.1384 1407.87 78.9154C1408.4 72.7641 1407.6 66.2143 1404.43 61.3697C1401.44 56.4295 1396.53 53.6726 1392.86 53.306C1397.13 53.7363 1402.39 56.557 1405.95 61.6088C1409.64 66.5968 1411.14 73.4812 1411.35 79.9194C1411.32 92.9552 1409.61 104.286 1410.46 109.083C1410.7 113.465 1411.81 117.656 1413.91 120.461C1411.11 118.357 1406.93 117.226 1402.54 117.003C1397.74 116.158 1386.42 117.879 1373.37 117.895C1366.95 117.688 1360.07 116.19 1355.06 112.493C1350.01 108.939 1347.19 103.68 1346.76 99.4093C1347.13 103.075 1349.88 107.983 1354.82 110.979C1359.67 114.15 1366.22 114.947 1372.37 114.421C1384.58 112.971 1396.91 109.13 1403 110.087C1403.21 110.087 1403.4 110.087 1403.57 110.102Z" fill="url(#paint46_linear_3334_25446)"/>
<path d="M1414.17 50.9904C1414.2 52.1378 1411.73 53.2374 1409.61 53.3967C1407.5 53.5402 1399.65 52.0103 1396.68 52.2175C1400.09 51.9147 1407.2 49.3968 1409.4 49.2533C1411.58 49.094 1414.15 49.843 1414.17 50.9904Z" fill="url(#paint47_linear_3334_25446)"/>
<path d="M1344.41 120.761C1345.56 120.793 1346.66 118.323 1346.82 116.204C1346.96 114.1 1345.43 106.26 1345.64 103.279C1345.34 106.69 1342.82 113.797 1342.68 115.997C1342.5 118.164 1343.26 120.73 1344.41 120.761Z" fill="url(#paint48_linear_3334_25446)"/>
<path d="M1417.11 74.4526C1415.96 74.596 1414.4 71.2494 1413.03 68.5562C1412.39 67.1857 1411.15 63.8072 1408.84 60.7156C1406.59 57.5921 1403.31 54.9786 1401.22 54.0703C1403.64 55.1061 1407.44 56.875 1410.54 59.4726C1413.71 61.9746 1416.04 65.1777 1416.79 66.7714C1418.42 70.0064 1418.26 74.3251 1417.11 74.4526Z" fill="url(#paint49_linear_3334_25446)"/>
<path d="M1367.89 123.689C1368.03 122.542 1364.68 120.98 1361.99 119.609C1360.62 118.972 1357.24 117.729 1354.15 115.418C1351.03 113.171 1348.41 109.888 1347.5 107.801C1348.54 110.223 1350.31 114.016 1352.89 117.123C1355.39 120.295 1358.6 122.621 1360.19 123.37C1363.44 124.996 1367.76 124.836 1367.89 123.689Z" fill="url(#paint50_linear_3334_25446)"/>
<path d="M1385.94 92.5201C1389.5 90.4802 1391.81 87.3408 1393.26 85.0938C1395.14 82.0978 1395.92 80.2174 1395.92 80.2174C1395.92 80.2174 1395.47 82.1935 1394.02 85.5082C1392.91 87.8827 1391.1 91.3886 1387.58 94.1615C1384.81 97.6834 1381.29 99.4682 1378.93 100.584C1375.63 102.05 1373.64 102.496 1373.64 102.496C1373.64 102.496 1375.52 101.715 1378.52 99.8348C1380.75 98.3686 1383.89 96.0738 1385.94 92.5201Z" fill="url(#paint51_linear_3334_25446)"/>
<path d="M1390.13 96.7195C1392.64 94.5044 1393.97 92.4645 1394.48 92.7036C1394.94 92.8789 1394.45 95.5721 1392.09 98.6796C1388.98 101.038 1386.27 101.532 1386.11 101.07C1385.87 100.56 1387.91 99.2374 1390.13 96.7195Z" fill="url(#paint52_linear_3334_25446)"/>
<path d="M1293.43 106.866C1293.43 106.866 1294.78 107.71 1297.41 108.714C1299.98 109.623 1304.3 110.961 1309.3 108.953C1314.31 106.914 1317.86 101.687 1321.7 97.3359C1325.45 92.9854 1331.13 89.4316 1336.65 90.7703C1339.23 91.3758 1341.24 93.2404 1342.07 95.2005C1342.93 97.1447 1342.56 99.2961 1341.65 101.049C1339.79 104.587 1336.25 106.133 1333.81 105.83C1328.49 104.81 1328.41 100.539 1328.39 100.938C1328.39 100.938 1328.12 101.591 1328.46 103.041C1328.79 104.412 1329.99 106.85 1333.37 107.933C1336.65 108.937 1341.73 107.599 1344.79 102.866C1346.26 100.587 1347.21 97.1128 1345.89 93.6866C1344.65 90.3719 1341.62 87.5352 1337.65 86.5631C1329.51 84.7145 1322.59 90.0531 1318.9 94.9615C1315.06 99.9973 1312.35 104.842 1308.35 106.977C1304.41 109.161 1300.2 108.587 1297.59 108.029C1294.91 107.471 1293.43 106.866 1293.43 106.866Z" fill="url(#paint53_linear_3334_25446)"/>
<path d="M1301.15 112.965C1300.98 113.332 1303.03 114.702 1306.49 114.989C1309.9 115.34 1314.52 114.192 1317.87 111.706C1319.53 110.543 1322.17 108.152 1324.09 104.694C1326.11 101.427 1327.75 96.9493 1331.64 95.276C1333.52 94.4314 1335.85 94.5748 1337.34 96.025C1338.95 97.3795 1338.92 99.8815 1337.68 101.475C1336.52 103.117 1334.44 103.866 1332.72 103.563C1330.97 103.292 1329.74 101.921 1329.49 100.631C1329.85 104.057 1336.05 105.316 1338.52 101.14C1339.86 99.3078 1339.51 96.2162 1337.44 94.7182C1335.51 93.0768 1332.58 93.029 1330.38 94.017C1325.69 96.1365 1323.78 100.583 1321.66 103.356C1319.65 106.304 1317.41 108.025 1315.97 109.061C1313.12 111.164 1309.46 112.423 1306.46 112.694C1303.5 113.013 1301.3 112.519 1301.15 112.965Z" fill="url(#paint54_linear_3334_25446)"/>
<path d="M1320.68 115.265C1321.14 116.062 1323.66 115.218 1324.96 113.433C1325.63 112.604 1326.67 110.277 1326.86 107.823C1327.03 105.369 1326.62 103.042 1327.46 101.863C1326.54 103.09 1326.16 105.688 1325.22 107.552C1324.28 109.465 1322.89 110.787 1322.38 111.441C1321.42 112.779 1320.21 114.5 1320.68 115.265Z" fill="url(#paint55_linear_3334_25446)"/>
<path d="M1331.02 117.737C1331.91 117.625 1332.23 115.665 1331.87 114.088C1331.52 112.462 1328.68 107.235 1328.22 105.147C1328.73 107.681 1328.33 113.195 1328.66 114.677C1329.01 116.175 1330.13 117.848 1331.02 117.737Z" fill="url(#paint56_linear_3334_25446)"/>
<path d="M1339.62 111.814C1339.59 110.922 1338.45 110.173 1337.55 109.95C1336.68 109.982 1332.49 109.774 1331.33 108.436C1332.35 109.79 1335.39 112.962 1336.84 113.121C1338.13 113.424 1339.65 112.707 1339.62 111.814Z" fill="url(#paint57_linear_3334_25446)"/>
<path d="M1400.3 -0.000842145C1400.3 -0.000842145 1401.14 1.3378 1402.15 3.98319C1403.06 6.54891 1404.39 10.8676 1402.39 15.8716C1400.35 20.8755 1395.12 24.4293 1390.77 28.2699C1386.42 32.0149 1382.86 37.7041 1384.2 43.218C1384.81 45.7996 1386.67 47.8076 1388.63 48.6363C1390.58 49.4968 1392.73 49.1303 1394.48 48.2219C1398.02 46.3733 1399.57 42.8196 1399.26 40.3813C1398.24 35.0587 1393.97 34.979 1394.37 34.979C1394.37 34.979 1395.02 34.7081 1396.49 35.0427C1397.86 35.3774 1400.3 36.5726 1401.38 39.9511C1402.39 43.2339 1401.05 48.3175 1396.31 51.3773C1394.04 52.8434 1390.56 53.7996 1387.13 52.4769C1383.82 51.2339 1380.97 48.206 1380.01 44.2379C1378.16 36.0945 1383.5 29.1782 1388.43 25.4811C1393.46 21.6404 1398.31 18.9313 1400.46 14.9313C1402.62 10.9951 1402.05 6.78796 1401.51 4.17443C1400.9 1.48122 1400.3 -0.000842145 1400.3 -0.000842145Z" fill="url(#paint58_linear_3334_25446)"/>
<path d="M1406.4 7.69518C1406.79 7.51989 1408.14 9.57564 1408.43 13.0338C1408.78 16.4441 1407.63 21.0656 1405.15 24.4122C1403.98 26.0696 1401.59 28.7149 1398.13 30.6273C1394.87 32.6512 1390.39 34.2926 1388.72 38.181C1387.87 40.0615 1388.01 42.3882 1389.46 43.9021C1390.82 45.5116 1393.32 45.4798 1394.9 44.2368C1396.54 43.0734 1397.29 41.0017 1397 39.2806C1396.73 37.5276 1395.34 36.3006 1394.07 36.0456C1397.5 36.4121 1398.76 42.6113 1394.58 45.0814C1392.75 46.42 1389.66 46.0694 1388.16 43.9977C1386.52 42.0694 1386.47 39.1372 1387.46 36.938C1389.58 32.2528 1394.04 30.3564 1396.8 28.2209C1399.74 26.213 1401.46 23.966 1402.5 22.5317C1404.6 19.6792 1405.88 16.0138 1406.13 13.0178C1406.45 10.0537 1405.96 7.85455 1406.4 7.69518Z" fill="url(#paint59_linear_3334_25446)"/>
<path d="M1408.73 27.2346C1409.52 27.6968 1408.68 30.2147 1406.89 31.5215C1406.07 32.1908 1403.74 33.2266 1401.28 33.4179C1398.83 33.5932 1396.5 33.1788 1395.32 34.0234C1396.55 33.0991 1399.15 32.7167 1401.01 31.7924C1402.94 30.8521 1404.25 29.4657 1404.9 28.9557C1406.24 27.9836 1407.96 26.7725 1408.73 27.2346Z" fill="url(#paint60_linear_3334_25446)"/>
<path d="M1411.2 37.5742C1411.09 38.4666 1409.13 38.7853 1407.56 38.4347C1405.93 38.0841 1400.7 35.2475 1398.62 34.7853C1401.15 35.2953 1406.66 34.8969 1408.15 35.2316C1409.64 35.5662 1411.32 36.6817 1411.2 37.5742Z" fill="url(#paint61_linear_3334_25446)"/>
<path d="M1405.24 46.1909C1404.35 46.159 1403.6 45.0435 1403.38 44.1192C1403.4 43.2587 1403.2 39.0675 1401.85 37.9041C1403.22 38.924 1406.39 41.9678 1406.55 43.418C1406.85 44.7088 1406.14 46.2228 1405.24 46.1909Z" fill="url(#paint62_linear_3334_25446)"/>
<defs>
<linearGradient id="paint0_linear_3334_25446" x1="810.776" y1="108.07" x2="1264.84" y2="108.07" gradientUnits="userSpaceOnUse">
<stop stop-color="#FEDB87"/>
<stop offset="0.3167" stop-color="#BD7923"/>
<stop offset="1" stop-color="#F7D07C"/>
</linearGradient>
<linearGradient id="paint1_linear_3334_25446" x1="1267.82" y1="108.025" x2="1273.11" y2="108.025" gradientUnits="userSpaceOnUse">
<stop stop-color="#FEDB87"/>
<stop offset="0.3167" stop-color="#BD7923"/>
<stop offset="1" stop-color="#F7D07C"/>
</linearGradient>
<linearGradient id="paint2_linear_3334_25446" x1="1274.94" y1="108.033" x2="1282.41" y2="108.033" gradientUnits="userSpaceOnUse">
<stop stop-color="#FEDB87"/>
<stop offset="0.3167" stop-color="#BD7923"/>
<stop offset="1" stop-color="#F7D07C"/>
</linearGradient>
<linearGradient id="paint3_linear_3334_25446" x1="802.565" y1="108.025" x2="807.863" y2="108.025" gradientUnits="userSpaceOnUse">
<stop stop-color="#FEDB87"/>
<stop offset="0.3167" stop-color="#BD7923"/>
<stop offset="1" stop-color="#F7D07C"/>
</linearGradient>
<linearGradient id="paint4_linear_3334_25446" x1="793.366" y1="108.033" x2="800.84" y2="108.033" gradientUnits="userSpaceOnUse">
<stop stop-color="#FEDB87"/>
<stop offset="0.3167" stop-color="#BD7923"/>
<stop offset="1" stop-color="#F7D07C"/>
</linearGradient>
<linearGradient id="paint5_linear_3334_25446" x1="156.658" y1="108.07" x2="610.221" y2="108.07" gradientUnits="userSpaceOnUse">
<stop stop-color="#FEDB87"/>
<stop offset="0.3167" stop-color="#BD7923"/>
<stop offset="1" stop-color="#F7D07C"/>
</linearGradient>
<linearGradient id="paint6_linear_3334_25446" x1="613.15" y1="108.025" x2="618.441" y2="108.025" gradientUnits="userSpaceOnUse">
<stop stop-color="#FEDB87"/>
<stop offset="0.3167" stop-color="#BD7923"/>
<stop offset="1" stop-color="#F7D07C"/>
</linearGradient>
<linearGradient id="paint7_linear_3334_25446" x1="620.273" y1="108.033" x2="627.748" y2="108.033" gradientUnits="userSpaceOnUse">
<stop stop-color="#FEDB87"/>
<stop offset="0.3167" stop-color="#BD7923"/>
<stop offset="1" stop-color="#F7D07C"/>
</linearGradient>
<linearGradient id="paint8_linear_3334_25446" x1="148.427" y1="108.025" x2="153.717" y2="108.025" gradientUnits="userSpaceOnUse">
<stop stop-color="#FEDB87"/>
<stop offset="0.3167" stop-color="#BD7923"/>
<stop offset="1" stop-color="#F7D07C"/>
</linearGradient>
<linearGradient id="paint9_linear_3334_25446" x1="139.226" y1="108.033" x2="146.697" y2="108.033" gradientUnits="userSpaceOnUse">
<stop stop-color="#FEDB87"/>
<stop offset="0.3167" stop-color="#BD7923"/>
<stop offset="1" stop-color="#F7D07C"/>
</linearGradient>
<linearGradient id="paint10_linear_3334_25446" x1="688.079" y1="108.004" x2="733.123" y2="108.004" gradientUnits="userSpaceOnUse">
<stop stop-color="#FEDB87"/>
<stop offset="0.3167" stop-color="#BD7923"/>
<stop offset="1" stop-color="#F7D07C"/>
</linearGradient>
<linearGradient id="paint11_linear_3334_25446" x1="630.749" y1="107.992" x2="676.775" y2="107.992" gradientUnits="userSpaceOnUse">
<stop stop-color="#FEDB87"/>
<stop offset="0.3167" stop-color="#BD7923"/>
<stop offset="1" stop-color="#F7D07C"/>
</linearGradient>
<linearGradient id="paint12_linear_3334_25446" x1="744.44" y1="108.006" x2="790.465" y2="108.006" gradientUnits="userSpaceOnUse">
<stop stop-color="#FEDB87"/>
<stop offset="0.3167" stop-color="#BD7923"/>
<stop offset="1" stop-color="#F7D07C"/>
</linearGradient>
<linearGradient id="paint13_linear_3334_25446" x1="677.236" y1="108.033" x2="693.62" y2="108.033" gradientUnits="userSpaceOnUse">
<stop stop-color="#FEDB87"/>
<stop offset="0.3167" stop-color="#BD7923"/>
<stop offset="1" stop-color="#F7D07C"/>
</linearGradient>
<linearGradient id="paint14_linear_3334_25446" x1="727.578" y1="108.009" x2="743.964" y2="108.009" gradientUnits="userSpaceOnUse">
<stop stop-color="#FEDB87"/>
<stop offset="0.3167" stop-color="#BD7923"/>
<stop offset="1" stop-color="#F7D07C"/>
</linearGradient>
<linearGradient id="paint15_linear_3334_25446" x1="716.527" y1="96.4151" x2="726.747" y2="96.4151" gradientUnits="userSpaceOnUse">
<stop stop-color="#FEDB87"/>
<stop offset="0.3167" stop-color="#BD7923"/>
<stop offset="1" stop-color="#F7D07C"/>
</linearGradient>
<linearGradient id="paint16_linear_3334_25446" x1="694.464" y1="96.4151" x2="704.686" y2="96.4151" gradientUnits="userSpaceOnUse">
<stop stop-color="#FEDB87"/>
<stop offset="0.3167" stop-color="#BD7923"/>
<stop offset="1" stop-color="#F7D07C"/>
</linearGradient>
<linearGradient id="paint17_linear_3334_25446" x1="694.464" y1="119.575" x2="704.686" y2="119.575" gradientUnits="userSpaceOnUse">
<stop stop-color="#FEDB87"/>
<stop offset="0.3167" stop-color="#BD7923"/>
<stop offset="1" stop-color="#F7D07C"/>
</linearGradient>
<linearGradient id="paint18_linear_3334_25446" x1="716.527" y1="119.663" x2="726.747" y2="119.663" gradientUnits="userSpaceOnUse">
<stop stop-color="#FEDB87"/>
<stop offset="0.3167" stop-color="#BD7923"/>
<stop offset="1" stop-color="#F7D07C"/>
</linearGradient>
<linearGradient id="paint19_linear_3334_25446" x1="738.762" y1="114.674" x2="745.114" y2="114.674" gradientUnits="userSpaceOnUse">
<stop stop-color="#FEDB87"/>
<stop offset="0.3167" stop-color="#BD7923"/>
<stop offset="1" stop-color="#F7D07C"/>
</linearGradient>
<linearGradient id="paint20_linear_3334_25446" x1="676.085" y1="101.293" x2="682.444" y2="101.293" gradientUnits="userSpaceOnUse">
<stop stop-color="#FEDB87"/>
<stop offset="0.3167" stop-color="#BD7923"/>
<stop offset="1" stop-color="#F7D07C"/>
</linearGradient>
<linearGradient id="paint21_linear_3334_25446" x1="738.762" y1="101.293" x2="745.114" y2="101.293" gradientUnits="userSpaceOnUse">
<stop stop-color="#FEDB87"/>
<stop offset="0.3167" stop-color="#BD7923"/>
<stop offset="1" stop-color="#F7D07C"/>
</linearGradient>
<linearGradient id="paint22_linear_3334_25446" x1="676.085" y1="114.674" x2="682.444" y2="114.674" gradientUnits="userSpaceOnUse">
<stop stop-color="#FEDB87"/>
<stop offset="0.3167" stop-color="#BD7923"/>
<stop offset="1" stop-color="#F7D07C"/>
</linearGradient>
<linearGradient id="paint23_linear_3334_25446" x1="46.825" y1="100.916" x2="46.825" y2="54.5834" gradientUnits="userSpaceOnUse">
<stop stop-color="#FEDB87"/>
<stop offset="0.3167" stop-color="#BD7923"/>
<stop offset="1" stop-color="#F7D07C"/>
</linearGradient>
<linearGradient id="paint24_linear_3334_25446" x1="47.2989" y1="91.1753" x2="47.2989" y2="63.4178" gradientUnits="userSpaceOnUse">
<stop stop-color="#FEDB87"/>
<stop offset="0.3167" stop-color="#BD7923"/>
<stop offset="1" stop-color="#F7D07C"/>
</linearGradient>
<linearGradient id="paint25_linear_3334_25446" x1="44.1199" y1="109.607" x2="44.1199" y2="51.3016" gradientUnits="userSpaceOnUse">
<stop stop-color="#FEDB87"/>
<stop offset="0.3167" stop-color="#BD7923"/>
<stop offset="1" stop-color="#F7D07C"/>
</linearGradient>
<linearGradient id="paint26_linear_3334_25446" x1="37.6518" y1="120.461" x2="37.6518" y2="53.3172" gradientUnits="userSpaceOnUse">
<stop stop-color="#FEDB87"/>
<stop offset="0.3167" stop-color="#BD7923"/>
<stop offset="1" stop-color="#F7D07C"/>
</linearGradient>
<linearGradient id="paint27_linear_3334_25446" x1="12.5691" y1="53.4015" x2="12.5691" y2="49.2167" gradientUnits="userSpaceOnUse">
<stop stop-color="#FEDB87"/>
<stop offset="0.3167" stop-color="#BD7923"/>
<stop offset="1" stop-color="#F7D07C"/>
</linearGradient>
<linearGradient id="paint28_linear_3334_25446" x1="73.2685" y1="120.753" x2="73.2685" y2="103.27" gradientUnits="userSpaceOnUse">
<stop stop-color="#FEDB87"/>
<stop offset="0.3167" stop-color="#BD7923"/>
<stop offset="1" stop-color="#F7D07C"/>
</linearGradient>
<linearGradient id="paint29_linear_3334_25446" x1="8.39263" y1="74.4542" x2="8.39262" y2="54.0639" gradientUnits="userSpaceOnUse">
<stop stop-color="#FEDB87"/>
<stop offset="0.3167" stop-color="#BD7923"/>
<stop offset="1" stop-color="#F7D07C"/>
</linearGradient>
<linearGradient id="paint30_linear_3334_25446" x1="60.3042" y1="124.57" x2="60.3042" y2="107.793" gradientUnits="userSpaceOnUse">
<stop stop-color="#FEDB87"/>
<stop offset="0.3167" stop-color="#BD7923"/>
<stop offset="1" stop-color="#F7D07C"/>
</linearGradient>
<linearGradient id="paint31_linear_3334_25446" x1="33.217" y1="102.491" x2="33.217" y2="80.2142" gradientUnits="userSpaceOnUse">
<stop stop-color="#FEDB87"/>
<stop offset="0.3167" stop-color="#BD7923"/>
<stop offset="1" stop-color="#F7D07C"/>
</linearGradient>
<linearGradient id="paint32_linear_3334_25446" x1="27.626" y1="101.228" x2="27.626" y2="92.6813" gradientUnits="userSpaceOnUse">
<stop stop-color="#FEDB87"/>
<stop offset="0.3167" stop-color="#BD7923"/>
<stop offset="1" stop-color="#F7D07C"/>
</linearGradient>
<linearGradient id="paint33_linear_3334_25446" x1="98.0097" y1="110.004" x2="98.0097" y2="86.2061" gradientUnits="userSpaceOnUse">
<stop stop-color="#FEDB87"/>
<stop offset="0.3167" stop-color="#BD7923"/>
<stop offset="1" stop-color="#F7D07C"/>
</linearGradient>
<linearGradient id="paint34_linear_3334_25446" x1="97.764" y1="115.051" x2="97.764" y2="93.37" gradientUnits="userSpaceOnUse">
<stop stop-color="#FEDB87"/>
<stop offset="0.3167" stop-color="#BD7923"/>
<stop offset="1" stop-color="#F7D07C"/>
</linearGradient>
<linearGradient id="paint35_linear_3334_25446" x1="93.9613" y1="115.563" x2="93.9613" y2="101.873" gradientUnits="userSpaceOnUse">
<stop stop-color="#FEDB87"/>
<stop offset="0.3167" stop-color="#BD7923"/>
<stop offset="1" stop-color="#F7D07C"/>
</linearGradient>
<linearGradient id="paint36_linear_3334_25446" x1="87.8776" y1="117.737" x2="87.8776" y2="105.131" gradientUnits="userSpaceOnUse">
<stop stop-color="#FEDB87"/>
<stop offset="0.3167" stop-color="#BD7923"/>
<stop offset="1" stop-color="#F7D07C"/>
</linearGradient>
<linearGradient id="paint37_linear_3334_25446" x1="82.5136" y1="113.191" x2="82.5136" y2="108.423" gradientUnits="userSpaceOnUse">
<stop stop-color="#FEDB87"/>
<stop offset="0.3167" stop-color="#BD7923"/>
<stop offset="1" stop-color="#F7D07C"/>
</linearGradient>
<linearGradient id="paint38_linear_3334_25446" x1="26.448" y1="53.1079" x2="26.448" y2="-0.00562279" gradientUnits="userSpaceOnUse">
<stop stop-color="#FEDB87"/>
<stop offset="0.3167" stop-color="#BD7923"/>
<stop offset="1" stop-color="#F7D07C"/>
</linearGradient>
<linearGradient id="paint39_linear_3334_25446" x1="20.3313" y1="45.883" x2="20.3313" y2="7.692" gradientUnits="userSpaceOnUse">
<stop stop-color="#FEDB87"/>
<stop offset="0.3167" stop-color="#BD7923"/>
<stop offset="1" stop-color="#F7D07C"/>
</linearGradient>
<linearGradient id="paint40_linear_3334_25446" x1="15.8083" y1="34.0234" x2="15.8083" y2="27.1327" gradientUnits="userSpaceOnUse">
<stop stop-color="#FEDB87"/>
<stop offset="0.3167" stop-color="#BD7923"/>
<stop offset="1" stop-color="#F7D07C"/>
</linearGradient>
<linearGradient id="paint41_linear_3334_25446" x1="13.0843" y1="38.5718" x2="13.0843" y2="34.7822" gradientUnits="userSpaceOnUse">
<stop stop-color="#FEDB87"/>
<stop offset="0.3167" stop-color="#BD7923"/>
<stop offset="1" stop-color="#F7D07C"/>
</linearGradient>
<linearGradient id="paint42_linear_3334_25446" x1="13.7495" y1="46.1957" x2="13.7495" y2="37.9057" gradientUnits="userSpaceOnUse">
<stop stop-color="#FEDB87"/>
<stop offset="0.3167" stop-color="#BD7923"/>
<stop offset="1" stop-color="#F7D07C"/>
</linearGradient>
<linearGradient id="paint43_linear_3334_25446" x1="1371.17" y1="100.916" x2="1371.17" y2="54.5834" gradientUnits="userSpaceOnUse">
<stop stop-color="#FEDB87"/>
<stop offset="0.3167" stop-color="#BD7923"/>
<stop offset="1" stop-color="#F7D07C"/>
</linearGradient>
<linearGradient id="paint44_linear_3334_25446" x1="1370.69" y1="91.1753" x2="1370.69" y2="63.4178" gradientUnits="userSpaceOnUse">
<stop stop-color="#FEDB87"/>
<stop offset="0.3167" stop-color="#BD7923"/>
<stop offset="1" stop-color="#F7D07C"/>
</linearGradient>
<linearGradient id="paint45_linear_3334_25446" x1="1373.88" y1="109.607" x2="1373.88" y2="51.3016" gradientUnits="userSpaceOnUse">
<stop stop-color="#FEDB87"/>
<stop offset="0.3167" stop-color="#BD7923"/>
<stop offset="1" stop-color="#F7D07C"/>
</linearGradient>
<linearGradient id="paint46_linear_3334_25446" x1="1380.36" y1="120.461" x2="1380.36" y2="53.3172" gradientUnits="userSpaceOnUse">
<stop stop-color="#FEDB87"/>
<stop offset="0.3167" stop-color="#BD7923"/>
<stop offset="1" stop-color="#F7D07C"/>
</linearGradient>
<linearGradient id="paint47_linear_3334_25446" x1="1405.43" y1="53.4015" x2="1405.43" y2="49.2167" gradientUnits="userSpaceOnUse">
<stop stop-color="#FEDB87"/>
<stop offset="0.3167" stop-color="#BD7923"/>
<stop offset="1" stop-color="#F7D07C"/>
</linearGradient>
<linearGradient id="paint48_linear_3334_25446" x1="1344.73" y1="120.753" x2="1344.73" y2="103.27" gradientUnits="userSpaceOnUse">
<stop stop-color="#FEDB87"/>
<stop offset="0.3167" stop-color="#BD7923"/>
<stop offset="1" stop-color="#F7D07C"/>
</linearGradient>
<linearGradient id="paint49_linear_3334_25446" x1="1409.6" y1="74.4542" x2="1409.6" y2="54.0639" gradientUnits="userSpaceOnUse">
<stop stop-color="#FEDB87"/>
<stop offset="0.3167" stop-color="#BD7923"/>
<stop offset="1" stop-color="#F7D07C"/>
</linearGradient>
<linearGradient id="paint50_linear_3334_25446" x1="1357.69" y1="124.57" x2="1357.69" y2="107.793" gradientUnits="userSpaceOnUse">
<stop stop-color="#FEDB87"/>
<stop offset="0.3167" stop-color="#BD7923"/>
<stop offset="1" stop-color="#F7D07C"/>
</linearGradient>
<linearGradient id="paint51_linear_3334_25446" x1="1384.77" y1="102.491" x2="1384.77" y2="80.2142" gradientUnits="userSpaceOnUse">
<stop stop-color="#FEDB87"/>
<stop offset="0.3167" stop-color="#BD7923"/>
<stop offset="1" stop-color="#F7D07C"/>
</linearGradient>
<linearGradient id="paint52_linear_3334_25446" x1="1390.36" y1="101.228" x2="1390.36" y2="92.6813" gradientUnits="userSpaceOnUse">
<stop stop-color="#FEDB87"/>
<stop offset="0.3167" stop-color="#BD7923"/>
<stop offset="1" stop-color="#F7D07C"/>
</linearGradient>
<linearGradient id="paint53_linear_3334_25446" x1="1319.98" y1="110.004" x2="1319.98" y2="86.2061" gradientUnits="userSpaceOnUse">
<stop stop-color="#FEDB87"/>
<stop offset="0.3167" stop-color="#BD7923"/>
<stop offset="1" stop-color="#F7D07C"/>
</linearGradient>
<linearGradient id="paint54_linear_3334_25446" x1="1320.23" y1="115.051" x2="1320.23" y2="93.37" gradientUnits="userSpaceOnUse">
<stop stop-color="#FEDB87"/>
<stop offset="0.3167" stop-color="#BD7923"/>
<stop offset="1" stop-color="#F7D07C"/>
</linearGradient>
<linearGradient id="paint55_linear_3334_25446" x1="1324.02" y1="115.563" x2="1324.02" y2="101.873" gradientUnits="userSpaceOnUse">
<stop stop-color="#FEDB87"/>
<stop offset="0.3167" stop-color="#BD7923"/>
<stop offset="1" stop-color="#F7D07C"/>
</linearGradient>
<linearGradient id="paint56_linear_3334_25446" x1="1330.12" y1="117.737" x2="1330.12" y2="105.131" gradientUnits="userSpaceOnUse">
<stop stop-color="#FEDB87"/>
<stop offset="0.3167" stop-color="#BD7923"/>
<stop offset="1" stop-color="#F7D07C"/>
</linearGradient>
<linearGradient id="paint57_linear_3334_25446" x1="1335.48" y1="113.191" x2="1335.48" y2="108.423" gradientUnits="userSpaceOnUse">
<stop stop-color="#FEDB87"/>
<stop offset="0.3167" stop-color="#BD7923"/>
<stop offset="1" stop-color="#F7D07C"/>
</linearGradient>
<linearGradient id="paint58_linear_3334_25446" x1="1391.54" y1="53.1079" x2="1391.54" y2="-0.00562279" gradientUnits="userSpaceOnUse">
<stop stop-color="#FEDB87"/>
<stop offset="0.3167" stop-color="#BD7923"/>
<stop offset="1" stop-color="#F7D07C"/>
</linearGradient>
<linearGradient id="paint59_linear_3334_25446" x1="1397.65" y1="45.883" x2="1397.65" y2="7.692" gradientUnits="userSpaceOnUse">
<stop stop-color="#FEDB87"/>
<stop offset="0.3167" stop-color="#BD7923"/>
<stop offset="1" stop-color="#F7D07C"/>
</linearGradient>
<linearGradient id="paint60_linear_3334_25446" x1="1402.18" y1="34.0234" x2="1402.18" y2="27.1327" gradientUnits="userSpaceOnUse">
<stop stop-color="#FEDB87"/>
<stop offset="0.3167" stop-color="#BD7923"/>
<stop offset="1" stop-color="#F7D07C"/>
</linearGradient>
<linearGradient id="paint61_linear_3334_25446" x1="1404.9" y1="38.5718" x2="1404.9" y2="34.7822" gradientUnits="userSpaceOnUse">
<stop stop-color="#FEDB87"/>
<stop offset="0.3167" stop-color="#BD7923"/>
<stop offset="1" stop-color="#F7D07C"/>
</linearGradient>
<linearGradient id="paint62_linear_3334_25446" x1="1404.24" y1="46.1957" x2="1404.24" y2="37.9057" gradientUnits="userSpaceOnUse">
<stop stop-color="#FEDB87"/>
<stop offset="0.3167" stop-color="#BD7923"/>
<stop offset="1" stop-color="#F7D07C"/>
</linearGradient>
</defs>
</svg>
