<svg width="12" height="12" viewBox="0 0 12 12" fill="none" xmlns="http://www.w3.org/2000/svg">
<path d="M0.666992 8.5H4.66699C4.69835 8.50003 4.72135 8.50411 4.74023 8.51172L4.78906 8.5459C4.81771 8.57508 4.83301 8.60476 4.83301 8.66699V11.333C4.83301 11.3962 4.81707 11.4251 4.78809 11.4541C4.75836 11.4838 4.72947 11.4999 4.66699 11.5H0.666992C0.604303 11.5 0.575004 11.4843 0.545898 11.4551L0.544922 11.4541L0.511719 11.4062C0.5041 11.3876 0.5 11.3644 0.5 11.333V8.66699C0.5 8.60429 0.516116 8.5747 0.545898 8.54492C0.574827 8.51604 0.603867 8.5 0.666992 8.5ZM7.33301 5.83301H11.333C11.396 5.83301 11.4252 5.84915 11.4541 5.87793C11.4839 5.90771 11.5 5.93729 11.5 6V11.333C11.5 11.3957 11.4843 11.425 11.4551 11.4541L11.4541 11.4551C11.425 11.4843 11.3957 11.5 11.333 11.5H7.33301C7.27057 11.4999 7.24193 11.4842 7.21289 11.4551L7.21191 11.4541L7.17773 11.4062C7.17018 11.3876 7.16699 11.3643 7.16699 11.333V6C7.16699 5.9373 7.18214 5.90771 7.21191 5.87793C7.24084 5.849 7.27 5.83306 7.33301 5.83301ZM0.833008 11.167H4.5V8.83301H0.833008V11.167ZM7.5 11.167H11.167V6.16699H7.5V11.167ZM0.666992 0.5H4.66699C4.69835 0.500027 4.72135 0.504111 4.74023 0.511719L4.78906 0.545898C4.81771 0.575081 4.83301 0.60476 4.83301 0.666992V6C4.83301 6.06324 4.81706 6.09211 4.78809 6.12109C4.75841 6.15072 4.72936 6.16694 4.66699 6.16699H0.666992C0.604329 6.16699 0.574991 6.15125 0.545898 6.12207L0.544922 6.12012C0.515843 6.09108 0.5 6.06255 0.5 6V0.666992C0.5 0.604285 0.516115 0.574705 0.545898 0.544922C0.574826 0.51604 0.603867 0.5 0.666992 0.5ZM0.833008 5.83301H4.5V0.833008H0.833008V5.83301ZM7.33301 0.5H11.333C11.3961 0.5 11.4252 0.51604 11.4541 0.544922C11.4839 0.574706 11.5 0.604285 11.5 0.666992V3.33301C11.5 3.3957 11.4843 3.425 11.4551 3.4541L11.4541 3.45508C11.425 3.48429 11.3957 3.5 11.333 3.5H7.33301C7.27057 3.49995 7.24193 3.48421 7.21289 3.45508L7.21191 3.4541L7.17773 3.40625C7.17018 3.38762 7.16699 3.3643 7.16699 3.33301V0.666992C7.16699 0.604406 7.18224 0.574647 7.21191 0.544922C7.24084 0.515992 7.27 0.500055 7.33301 0.5ZM7.5 3.16699H11.167V0.833008H7.5V3.16699Z" fill="black" stroke="white"/>
</svg>
